# Blender 4.3.2
# www.blender.org
mtllib arm2.mtl
o arm2
v -0.000000 -0.194242 0.165502
v -0.003244 -0.194066 0.165502
v 0.000000 -0.164242 0.165502
v 0.009579 -0.192672 0.165502
v 0.006449 -0.193541 0.165502
v 0.003244 -0.194066 0.165502
v 0.018155 -0.188125 0.165502
v 0.015467 -0.189948 0.165502
v 0.012597 -0.191469 0.165502
v 0.024831 -0.181078 0.165502
v 0.022865 -0.183664 0.165502
v 0.020631 -0.186022 0.165502
v 0.028906 -0.172268 0.165502
v 0.027869 -0.175346 0.165502
v 0.026505 -0.178294 0.165502
v 0.029956 -0.162618 0.165502
v 0.029956 -0.165866 0.165502
v 0.029605 -0.169095 0.165502
v 0.027869 -0.153138 0.165502
v 0.028906 -0.156216 0.165502
v 0.029605 -0.159389 0.165502
v 0.022865 -0.144820 0.165502
v 0.024831 -0.147406 0.165502
v 0.026505 -0.150190 0.165502
v 0.015467 -0.138536 0.165502
v 0.018155 -0.140359 0.165502
v 0.020631 -0.142462 0.165502
v 0.006449 -0.134943 0.165502
v 0.009579 -0.135812 0.165502
v 0.012597 -0.137015 0.165502
v -0.003244 -0.134418 0.165502
v 0.000000 -0.134242 0.165502
v 0.003244 -0.134418 0.165502
v -0.012597 -0.137015 0.165502
v -0.009579 -0.135812 0.165502
v -0.006449 -0.134943 0.165502
v -0.020631 -0.142462 0.165502
v -0.018155 -0.140359 0.165502
v -0.015467 -0.138536 0.165502
v -0.026505 -0.150190 0.165502
v -0.024831 -0.147406 0.165502
v -0.022865 -0.144820 0.165502
v -0.029605 -0.159389 0.165502
v -0.028906 -0.156216 0.165502
v -0.027869 -0.153138 0.165502
v -0.029605 -0.169095 0.165502
v -0.029956 -0.165866 0.165502
v -0.029956 -0.162618 0.165502
v -0.026505 -0.178294 0.165502
v -0.027869 -0.175346 0.165502
v -0.028906 -0.172268 0.165502
v -0.020631 -0.186022 0.165502
v -0.022865 -0.183664 0.165502
v -0.024831 -0.181078 0.165502
v -0.012597 -0.191469 0.165502
v -0.015467 -0.189948 0.165502
v -0.018155 -0.188125 0.165502
v -0.006449 -0.193541 0.165502
v -0.009579 -0.192672 0.165502
v 0.000000 -0.194242 0.170502
v 0.003244 -0.194066 0.170502
v 0.006449 -0.193541 0.170502
v 0.009579 -0.192672 0.170502
v 0.012597 -0.191469 0.170502
v 0.015467 -0.189948 0.170502
v 0.018155 -0.188125 0.170502
v 0.020631 -0.186022 0.170502
v 0.022865 -0.183664 0.170502
v 0.024831 -0.181078 0.170502
v 0.026505 -0.178294 0.170502
v 0.027869 -0.175346 0.170502
v 0.028906 -0.172268 0.170502
v 0.029605 -0.169095 0.170502
v 0.029956 -0.165866 0.170502
v 0.029956 -0.162618 0.170502
v 0.029605 -0.159389 0.170502
v 0.028906 -0.156216 0.170502
v 0.027869 -0.153138 0.170502
v 0.026505 -0.150190 0.170502
v 0.024831 -0.147406 0.170502
v 0.022865 -0.144820 0.170502
v 0.020631 -0.142462 0.170502
v 0.018155 -0.140359 0.170502
v 0.015467 -0.138536 0.170502
v 0.012597 -0.137015 0.170502
v 0.009579 -0.135812 0.170502
v 0.006449 -0.134943 0.170502
v 0.003244 -0.134418 0.170502
v 0.000000 -0.134242 0.170502
v -0.003244 -0.134418 0.170502
v -0.006449 -0.134943 0.170502
v -0.009579 -0.135812 0.170502
v -0.012597 -0.137015 0.170502
v -0.015467 -0.138536 0.170502
v -0.018155 -0.140359 0.170502
v -0.020631 -0.142462 0.170502
v -0.022865 -0.144820 0.170502
v -0.024831 -0.147406 0.170502
v -0.026505 -0.150190 0.170502
v -0.027869 -0.153138 0.170502
v -0.028906 -0.156216 0.170502
v -0.029605 -0.159389 0.170502
v -0.029956 -0.162618 0.170502
v -0.029956 -0.165866 0.170502
v -0.029605 -0.169095 0.170502
v -0.028906 -0.172268 0.170502
v -0.027869 -0.175346 0.170502
v -0.026505 -0.178294 0.170502
v -0.024831 -0.181078 0.170502
v -0.022865 -0.183664 0.170502
v -0.020631 -0.186022 0.170502
v -0.018155 -0.188125 0.170502
v -0.015467 -0.189948 0.170502
v -0.012597 -0.191469 0.170502
v -0.009579 -0.192672 0.170502
v -0.006449 -0.193541 0.170502
v -0.003244 -0.194066 0.170502
v -0.019975 -0.565242 0.190502
v -0.039950 -0.166242 0.190502
v -0.019975 -0.565242 0.170502
v -0.039950 -0.166242 0.170502
v 0.039950 -0.166242 0.190502
v 0.039950 -0.166242 0.170502
v 0.039933 -0.161922 0.170502
v 0.039933 -0.161922 0.190502
v 0.039450 -0.157629 0.170502
v 0.039450 -0.157629 0.190502
v 0.038506 -0.153413 0.170502
v 0.038506 -0.153413 0.190502
v 0.037114 -0.149324 0.170502
v 0.037114 -0.149324 0.190502
v 0.035289 -0.145408 0.170502
v 0.035289 -0.145408 0.190502
v 0.033052 -0.141712 0.170502
v 0.033052 -0.141712 0.190502
v 0.030429 -0.138279 0.170502
v 0.030429 -0.138279 0.190502
v 0.027452 -0.135149 0.170502
v 0.027452 -0.135149 0.190502
v 0.024154 -0.132358 0.170502
v 0.024154 -0.132358 0.190502
v 0.020575 -0.129939 0.170502
v 0.020575 -0.129939 0.190502
v 0.016755 -0.127920 0.170502
v 0.016755 -0.127920 0.190502
v 0.012741 -0.126325 0.170502
v 0.012741 -0.126325 0.190502
v 0.008577 -0.125172 0.170502
v 0.008577 -0.125172 0.190502
v 0.004314 -0.124475 0.170502
v 0.004314 -0.124475 0.190502
v -0.000000 -0.124242 0.170502
v -0.000000 -0.124242 0.190502
v -0.004314 -0.124475 0.170502
v -0.004314 -0.124475 0.190502
v -0.008577 -0.125172 0.170502
v -0.008577 -0.125172 0.190502
v -0.012741 -0.126325 0.170502
v -0.012741 -0.126325 0.190502
v -0.016755 -0.127920 0.170502
v -0.016755 -0.127920 0.190502
v -0.020575 -0.129939 0.170502
v -0.020575 -0.129939 0.190502
v -0.024154 -0.132358 0.170502
v -0.024154 -0.132358 0.190502
v -0.027452 -0.135149 0.170502
v -0.027452 -0.135149 0.190502
v -0.030429 -0.138279 0.170502
v -0.030429 -0.138279 0.190502
v -0.033052 -0.141712 0.170502
v -0.033052 -0.141712 0.190502
v -0.035289 -0.145408 0.170502
v -0.035289 -0.145408 0.190502
v -0.037114 -0.149324 0.170502
v -0.037114 -0.149324 0.190502
v -0.038506 -0.153413 0.170502
v -0.038506 -0.153413 0.190502
v -0.039450 -0.157629 0.170502
v -0.039450 -0.157629 0.190502
v -0.039933 -0.161922 0.170502
v -0.039933 -0.161922 0.190502
v -0.019749 -0.567402 0.170502
v -0.019749 -0.567402 0.190502
v -0.019290 -0.569524 0.170502
v -0.019290 -0.569524 0.190502
v -0.018604 -0.571584 0.170502
v -0.018604 -0.571584 0.190502
v -0.017698 -0.573558 0.170502
v -0.017698 -0.573558 0.190502
v -0.016584 -0.575422 0.170502
v -0.016584 -0.575422 0.190502
v -0.015274 -0.577154 0.170502
v -0.015274 -0.577154 0.190502
v -0.013784 -0.578733 0.170502
v -0.013784 -0.578733 0.190502
v -0.012132 -0.580142 0.170502
v -0.012132 -0.580142 0.190502
v -0.010336 -0.581364 0.170502
v -0.010336 -0.581364 0.190502
v -0.008419 -0.582384 0.170502
v -0.008419 -0.582384 0.190502
v -0.006403 -0.583189 0.170502
v -0.006403 -0.583189 0.190502
v -0.004311 -0.583772 0.170502
v -0.004311 -0.583772 0.190502
v -0.002168 -0.584124 0.170502
v -0.002168 -0.584124 0.190502
v -0.000000 -0.584242 0.170502
v -0.000000 -0.584242 0.190502
v 0.002168 -0.584124 0.170502
v 0.002168 -0.584124 0.190502
v 0.004311 -0.583772 0.170502
v 0.004311 -0.583772 0.190502
v 0.006403 -0.583189 0.170502
v 0.006403 -0.583189 0.190502
v 0.008419 -0.582384 0.170502
v 0.008419 -0.582384 0.190502
v 0.010336 -0.581364 0.170502
v 0.010336 -0.581364 0.190502
v 0.012132 -0.580142 0.170502
v 0.012132 -0.580142 0.190502
v 0.013784 -0.578733 0.170502
v 0.013784 -0.578733 0.190502
v 0.015274 -0.577154 0.170502
v 0.015274 -0.577154 0.190502
v 0.016584 -0.575422 0.170502
v 0.016584 -0.575422 0.190502
v 0.017698 -0.573558 0.170502
v 0.017698 -0.573558 0.190502
v 0.018604 -0.571584 0.170502
v 0.018604 -0.571584 0.190502
v 0.019290 -0.569524 0.170502
v 0.019290 -0.569524 0.190502
v 0.019749 -0.567402 0.170502
v 0.019749 -0.567402 0.190502
v 0.019975 -0.565242 0.170502
v 0.019975 -0.565242 0.190502
v -0.000000 -0.579242 0.165502
v -0.001622 -0.579154 0.165502
v -0.000000 -0.564242 0.165502
v 0.004790 -0.578457 0.165502
v 0.003225 -0.578891 0.165502
v 0.001622 -0.579154 0.165502
v 0.009078 -0.576183 0.165502
v 0.007733 -0.577095 0.165502
v 0.006298 -0.577856 0.165502
v 0.012415 -0.572660 0.165502
v 0.011432 -0.573953 0.165502
v 0.010315 -0.575132 0.165502
v 0.014453 -0.568255 0.165502
v 0.013935 -0.569794 0.165502
v 0.013253 -0.571268 0.165502
v 0.014978 -0.563430 0.165502
v 0.014978 -0.565054 0.165502
v 0.014802 -0.566669 0.165502
v 0.013935 -0.558690 0.165502
v 0.014453 -0.560229 0.165502
v 0.014802 -0.561815 0.165502
v 0.011432 -0.554531 0.165502
v 0.012415 -0.555824 0.165502
v 0.013253 -0.557216 0.165502
v 0.007733 -0.551389 0.165502
v 0.009078 -0.552301 0.165502
v 0.010315 -0.553352 0.165502
v 0.003225 -0.549593 0.165502
v 0.004790 -0.550027 0.165502
v 0.006298 -0.550628 0.165502
v -0.001622 -0.549330 0.165502
v -0.000000 -0.549242 0.165502
v 0.001622 -0.549330 0.165502
v -0.006298 -0.550628 0.165502
v -0.004790 -0.550027 0.165502
v -0.003225 -0.549593 0.165502
v -0.010315 -0.553352 0.165502
v -0.009078 -0.552301 0.165502
v -0.007733 -0.551389 0.165502
v -0.013253 -0.557216 0.165502
v -0.012415 -0.555824 0.165502
v -0.011432 -0.554531 0.165502
v -0.014802 -0.561815 0.165502
v -0.014453 -0.560229 0.165502
v -0.013935 -0.558690 0.165502
v -0.014802 -0.566669 0.165502
v -0.014978 -0.565054 0.165502
v -0.014978 -0.563430 0.165502
v -0.013253 -0.571268 0.165502
v -0.013935 -0.569794 0.165502
v -0.014453 -0.568255 0.165502
v -0.010315 -0.575132 0.165502
v -0.011432 -0.573953 0.165502
v -0.012415 -0.572660 0.165502
v -0.006298 -0.577856 0.165502
v -0.007733 -0.577095 0.165502
v -0.009078 -0.576183 0.165502
v -0.003225 -0.578891 0.165502
v -0.004790 -0.578457 0.165502
v -0.000000 -0.579242 0.170502
v 0.001622 -0.579154 0.170502
v 0.003225 -0.578891 0.170502
v 0.004790 -0.578457 0.170502
v 0.006298 -0.577856 0.170502
v 0.007733 -0.577095 0.170502
v 0.009078 -0.576183 0.170502
v 0.010315 -0.575132 0.170502
v 0.011432 -0.573953 0.170502
v 0.012415 -0.572660 0.170502
v 0.013253 -0.571268 0.170502
v 0.013935 -0.569794 0.170502
v 0.014453 -0.568255 0.170502
v 0.014802 -0.566669 0.170502
v 0.014978 -0.565054 0.170502
v 0.014978 -0.563430 0.170502
v 0.014802 -0.561815 0.170502
v 0.014453 -0.560229 0.170502
v 0.013935 -0.558690 0.170502
v 0.013253 -0.557216 0.170502
v 0.012415 -0.555824 0.170502
v 0.011432 -0.554531 0.170502
v 0.010315 -0.553352 0.170502
v 0.009078 -0.552301 0.170502
v 0.007733 -0.551389 0.170502
v 0.006298 -0.550628 0.170502
v 0.004790 -0.550027 0.170502
v 0.003225 -0.549593 0.170502
v 0.001622 -0.549330 0.170502
v -0.000000 -0.549242 0.170502
v -0.001622 -0.549330 0.170502
v -0.003225 -0.549593 0.170502
v -0.004790 -0.550027 0.170502
v -0.006298 -0.550628 0.170502
v -0.007733 -0.551389 0.170502
v -0.009078 -0.552301 0.170502
v -0.010315 -0.553352 0.170502
v -0.011432 -0.554531 0.170502
v -0.012415 -0.555824 0.170502
v -0.013253 -0.557216 0.170502
v -0.013935 -0.558690 0.170502
v -0.014453 -0.560229 0.170502
v -0.014802 -0.561815 0.170502
v -0.014978 -0.563430 0.170502
v -0.014978 -0.565054 0.170502
v -0.014802 -0.566669 0.170502
v -0.014453 -0.568255 0.170502
v -0.013935 -0.569794 0.170502
v -0.013253 -0.571268 0.170502
v -0.012415 -0.572660 0.170502
v -0.011432 -0.573953 0.170502
v -0.010315 -0.575132 0.170502
v -0.009078 -0.576183 0.170502
v -0.007733 -0.577095 0.170502
v -0.006298 -0.577856 0.170502
v -0.004790 -0.578457 0.170502
v -0.003225 -0.578891 0.170502
v -0.001622 -0.579154 0.170502
vn -0.0000 -0.0000 -1.0000
vn 0.0541 -0.9985 -0.0000
vn 0.1618 -0.9868 -0.0000
vn 0.2675 -0.9635 -0.0000
vn 0.2675 -0.9636 -0.0000
vn 0.3701 -0.9290 -0.0000
vn 0.4684 -0.8835 -0.0000
vn 0.5612 -0.8277 -0.0000
vn 0.6474 -0.7622 -0.0000
vn 0.7260 -0.6877 -0.0000
vn 0.7961 -0.6052 -0.0000
vn 0.8569 -0.5156 -0.0000
vn 0.9076 -0.4199 -0.0000
vn 0.9477 -0.3193 -0.0000
vn 0.9766 -0.2150 -0.0000
vn 0.9941 -0.1081 -0.0000
vn 1.0000 -0.0000 -0.0000
vn 0.9941 0.1081 -0.0000
vn 0.9766 0.2150 -0.0000
vn 0.9477 0.3193 -0.0000
vn 0.9076 0.4199 -0.0000
vn 0.8569 0.5156 -0.0000
vn 0.7961 0.6052 -0.0000
vn 0.7260 0.6877 -0.0000
vn 0.6474 0.7622 -0.0000
vn 0.5612 0.8277 -0.0000
vn 0.4684 0.8835 -0.0000
vn 0.3701 0.9290 -0.0000
vn 0.2675 0.9636 -0.0000
vn 0.2675 0.9635 -0.0000
vn 0.1618 0.9868 -0.0000
vn 0.0541 0.9985 -0.0000
vn -0.0541 0.9985 -0.0000
vn -0.1618 0.9868 -0.0000
vn -0.2675 0.9635 -0.0000
vn -0.2675 0.9636 -0.0000
vn -0.3701 0.9290 -0.0000
vn -0.4684 0.8835 -0.0000
vn -0.5612 0.8277 -0.0000
vn -0.6474 0.7622 -0.0000
vn -0.7260 0.6877 -0.0000
vn -0.7961 0.6052 -0.0000
vn -0.8569 0.5156 -0.0000
vn -0.9076 0.4199 -0.0000
vn -0.9477 0.3193 -0.0000
vn -0.9766 0.2150 -0.0000
vn -0.9941 0.1081 -0.0000
vn -1.0000 -0.0000 -0.0000
vn -0.9941 -0.1081 -0.0000
vn -0.9766 -0.2150 -0.0000
vn -0.9477 -0.3193 -0.0000
vn -0.9076 -0.4199 -0.0000
vn -0.8569 -0.5156 -0.0000
vn -0.7961 -0.6052 -0.0000
vn -0.7260 -0.6877 -0.0000
vn -0.6474 -0.7622 -0.0000
vn -0.5612 -0.8277 -0.0000
vn -0.4684 -0.8835 -0.0000
vn -0.3701 -0.9290 -0.0000
vn -0.2675 -0.9636 -0.0000
vn -0.2675 -0.9635 -0.0000
vn -0.1618 -0.9868 -0.0000
vn -0.0541 -0.9985 -0.0000
vn -0.9987 -0.0500 -0.0000
vn 1.0000 0.0040 -0.0000
vn 0.9937 0.1118 -0.0000
vn 0.9759 0.2183 -0.0000
vn 0.9466 0.3223 -0.0000
vn 0.9064 0.4225 -0.0000
vn 0.8555 0.5178 -0.0000
vn 0.7947 0.6070 -0.0000
vn 0.7246 0.6892 -0.0000
vn 0.6460 0.7633 -0.0000
vn 0.5599 0.8285 -0.0000
vn 0.4673 0.8841 -0.0000
vn 0.3692 0.9293 -0.0000
vn 0.2669 0.9637 -0.0000
vn 0.1614 0.9869 -0.0000
vn 0.0540 0.9985 -0.0000
vn -0.0540 0.9985 -0.0000
vn -0.1614 0.9869 -0.0000
vn -0.2669 0.9637 -0.0000
vn -0.3692 0.9293 -0.0000
vn -0.4673 0.8841 -0.0000
vn -0.5599 0.8285 -0.0000
vn -0.6460 0.7633 -0.0000
vn -0.7246 0.6892 -0.0000
vn -0.7947 0.6070 -0.0000
vn -0.8555 0.5178 -0.0000
vn -0.9064 0.4225 -0.0000
vn -0.9466 0.3223 -0.0000
vn -0.9759 0.2183 -0.0000
vn -0.9937 0.1118 -0.0000
vn -1.0000 0.0040 -0.0000
vn -0.9946 -0.1041 -0.0000
vn -0.9774 -0.2113 -0.0000
vn -0.9774 -0.2114 -0.0000
vn -0.9487 -0.3161 -0.0000
vn -0.9089 -0.4171 -0.0000
vn -0.8583 -0.5131 -0.0000
vn -0.7976 -0.6032 -0.0000
vn -0.7275 -0.6861 -0.0000
vn -0.6488 -0.7609 -0.0000
vn -0.6489 -0.7609 -0.0000
vn -0.5625 -0.8268 -0.0000
vn -0.4696 -0.8829 -0.0000
vn -0.3711 -0.9286 -0.0000
vn -0.2682 -0.9634 -0.0000
vn -0.1622 -0.9868 -0.0000
vn -0.1622 -0.9867 -0.0000
vn -0.0543 -0.9985 -0.0000
vn 0.0543 -0.9985 -0.0000
vn 0.1622 -0.9867 -0.0000
vn 0.1622 -0.9868 -0.0000
vn 0.2682 -0.9634 -0.0000
vn 0.3711 -0.9286 -0.0000
vn 0.4696 -0.8829 -0.0000
vn 0.5625 -0.8268 -0.0000
vn 0.6489 -0.7609 -0.0000
vn 0.6488 -0.7609 -0.0000
vn 0.7275 -0.6861 -0.0000
vn 0.7976 -0.6032 -0.0000
vn 0.8583 -0.5131 -0.0000
vn 0.9089 -0.4171 -0.0000
vn 0.9487 -0.3161 -0.0000
vn 0.9774 -0.2114 -0.0000
vn 0.9774 -0.2113 -0.0000
vn 0.9946 -0.1041 -0.0000
vn 0.9987 -0.0500 -0.0000
vn 0.2676 -0.9635 -0.0000
vn 0.3702 0.9290 -0.0000
vn 0.2676 0.9635 -0.0000
vn 0.0542 0.9985 -0.0000
vn -0.0542 0.9985 -0.0000
vn -0.2676 0.9635 -0.0000
vn -0.3702 0.9290 -0.0000
vn -0.2676 -0.9635 -0.0000
vn -0.0000 -0.0000 1.0000
s 0
usemtl Base_Material
f 118//64 119//64 120//64
f 119//64 121//64 120//64
f 122//65 123//65 124//65
f 122//65 124//65 125//65
f 124//66 126//66 125//66
f 125//66 126//66 127//66
f 126//67 128//67 127//67
f 127//67 128//67 129//67
f 128//68 130//68 129//68
f 129//68 130//68 131//68
f 130//69 132//69 131//69
f 131//69 132//69 133//69
f 132//70 134//70 133//70
f 133//70 134//70 135//70
f 134//71 136//71 135//71
f 135//71 136//71 137//71
f 136//72 138//72 137//72
f 137//72 138//72 139//72
f 138//73 140//73 139//73
f 139//73 140//73 141//73
f 140//74 142//74 141//74
f 141//74 142//74 143//74
f 142//75 144//75 143//75
f 143//75 144//75 145//75
f 144//76 146//76 145//76
f 145//76 146//76 147//76
f 146//77 148//77 147//77
f 147//77 148//77 149//77
f 148//78 150//78 149//78
f 149//78 150//78 151//78
f 150//79 152//79 151//79
f 151//79 152//79 153//79
f 152//80 154//80 153//80
f 153//80 154//80 155//80
f 154//81 156//81 155//81
f 155//81 156//81 157//81
f 156//82 158//82 157//82
f 157//82 158//82 159//82
f 158//83 160//83 159//83
f 159//83 160//83 161//83
f 160//84 162//84 161//84
f 161//84 162//84 163//84
f 162//85 164//85 163//85
f 163//85 164//85 165//85
f 164//86 166//86 165//86
f 165//86 166//86 167//86
f 166//87 168//87 167//87
f 167//87 168//87 169//87
f 168//88 170//88 169//88
f 169//88 170//88 171//88
f 170//89 172//89 171//89
f 171//89 172//89 173//89
f 172//90 174//90 173//90
f 173//90 174//90 175//90
f 174//91 176//91 175//91
f 175//91 176//91 177//91
f 176//92 178//92 177//92
f 177//92 178//92 179//92
f 178//93 180//93 179//93
f 179//93 180//93 181//93
f 180//94 121//94 181//94
f 181//94 121//94 119//94
f 118//95 120//95 182//95
f 118//95 182//95 183//95
f 182//96 184//96 183//96
f 183//97 184//97 185//97
f 184//98 186//98 185//98
f 185//98 186//98 187//98
f 186//99 188//99 187//99
f 187//99 188//99 189//99
f 188//100 190//100 189//100
f 189//100 190//100 191//100
f 190//101 192//101 191//101
f 191//101 192//101 193//101
f 192//102 194//102 193//102
f 193//102 194//102 195//102
f 194//103 196//103 195//103
f 195//104 196//104 197//104
f 196//105 198//105 197//105
f 197//105 198//105 199//105
f 198//106 200//106 199//106
f 199//106 200//106 201//106
f 200//107 202//107 201//107
f 201//107 202//107 203//107
f 202//108 204//108 203//108
f 203//108 204//108 205//108
f 204//109 206//109 205//109
f 205//110 206//110 207//110
f 206//111 208//111 207//111
f 207//111 208//111 209//111
f 208//112 210//112 209//112
f 209//112 210//112 211//112
f 210//113 212//113 211//113
f 211//114 212//114 213//114
f 212//115 214//115 213//115
f 213//115 214//115 215//115
f 214//116 216//116 215//116
f 215//116 216//116 217//116
f 216//117 218//117 217//117
f 217//117 218//117 219//117
f 218//118 220//118 219//118
f 219//118 220//118 221//118
f 220//119 222//119 221//119
f 221//120 222//120 223//120
f 222//121 224//121 223//121
f 223//121 224//121 225//121
f 224//122 226//122 225//122
f 225//122 226//122 227//122
f 226//123 228//123 227//123
f 227//123 228//123 229//123
f 228//124 230//124 229//124
f 229//124 230//124 231//124
f 230//125 232//125 231//125
f 231//125 232//125 233//125
f 232//126 234//126 233//126
f 233//127 234//127 235//127
f 234//128 236//128 235//128
f 235//128 236//128 237//128
f 122//129 237//129 123//129
f 237//129 236//129 123//129
f 122//138 119//138 237//138
f 119//138 118//138 237//138
f 237//138 118//138 235//138
f 118//138 233//138 235//138
f 213//138 215//138 118//138
f 165//138 167//138 122//138
f 167//138 169//138 122//138
f 122//138 169//138 171//138
f 127//138 129//138 163//138
f 129//138 131//138 163//138
f 163//138 131//138 133//138
f 133//138 135//138 163//138
f 135//138 137//138 163//138
f 163//138 137//138 139//138
f 139//138 141//138 163//138
f 141//138 143//138 163//138
f 163//138 143//138 145//138
f 149//138 157//138 159//138
f 149//138 151//138 157//138
f 151//138 153//138 157//138
f 157//138 153//138 155//138
f 145//138 147//138 163//138
f 147//138 149//138 163//138
f 163//138 149//138 161//138
f 149//138 159//138 161//138
f 171//138 173//138 122//138
f 173//138 175//138 122//138
f 122//138 175//138 177//138
f 177//138 179//138 122//138
f 179//138 181//138 122//138
f 122//138 181//138 119//138
f 183//138 191//138 118//138
f 191//138 193//138 118//138
f 118//138 193//138 195//138
f 195//138 197//138 118//138
f 197//138 199//138 118//138
f 118//138 199//138 201//138
f 201//138 203//138 118//138
f 203//138 205//138 118//138
f 118//138 205//138 207//138
f 207//138 209//138 118//138
f 209//138 211//138 118//138
f 118//138 211//138 213//138
f 165//138 122//138 163//138
f 122//138 125//138 163//138
f 163//138 125//138 127//138
f 183//138 185//138 191//138
f 185//138 187//138 191//138
f 191//138 187//138 189//138
f 215//138 217//138 118//138
f 217//138 219//138 118//138
f 118//138 219//138 221//138
f 221//138 223//138 118//138
f 223//138 225//138 118//138
f 118//138 225//138 227//138
f 227//138 229//138 118//138
f 229//138 231//138 118//138
f 118//138 231//138 233//138
f 321//1 322//1 123//1
f 329//1 121//1 328//1
f 121//1 327//1 328//1
f 322//1 323//1 123//1
f 323//1 324//1 123//1
f 123//1 324//1 325//1
f 113//1 114//1 326//1
f 114//1 115//1 326//1
f 326//1 115//1 116//1
f 62//1 63//1 325//1
f 63//1 64//1 325//1
f 325//1 64//1 65//1
f 116//1 117//1 326//1
f 117//1 60//1 326//1
f 326//1 60//1 325//1
f 60//1 61//1 325//1
f 325//1 61//1 62//1
f 329//1 330//1 121//1
f 330//1 331//1 121//1
f 121//1 331//1 332//1
f 332//1 333//1 121//1
f 333//1 334//1 121//1
f 121//1 334//1 335//1
f 318//1 123//1 317//1
f 123//1 316//1 317//1
f 318//1 319//1 123//1
f 319//1 320//1 123//1
f 123//1 320//1 321//1
f 104//1 105//1 326//1
f 105//1 106//1 326//1
f 326//1 106//1 107//1
f 107//1 108//1 326//1
f 108//1 109//1 326//1
f 326//1 109//1 110//1
f 110//1 111//1 326//1
f 111//1 112//1 326//1
f 326//1 112//1 113//1
f 65//1 66//1 325//1
f 66//1 67//1 325//1
f 325//1 67//1 68//1
f 312//1 313//1 236//1
f 313//1 314//1 236//1
f 236//1 314//1 123//1
f 314//1 315//1 123//1
f 123//1 315//1 316//1
f 68//1 69//1 325//1
f 69//1 70//1 325//1
f 325//1 70//1 123//1
f 70//1 71//1 123//1
f 123//1 71//1 72//1
f 335//1 336//1 121//1
f 336//1 337//1 121//1
f 121//1 337//1 120//1
f 337//1 338//1 120//1
f 120//1 338//1 339//1
f 339//1 340//1 120//1
f 340//1 341//1 120//1
f 120//1 341//1 182//1
f 341//1 342//1 182//1
f 182//1 342//1 184//1
f 342//1 343//1 184//1
f 184//1 343//1 186//1
f 343//1 344//1 186//1
f 186//1 344//1 188//1
f 344//1 345//1 188//1
f 188//1 345//1 190//1
f 345//1 346//1 190//1
f 190//1 346//1 192//1
f 346//1 347//1 192//1
f 192//1 347//1 194//1
f 347//1 348//1 194//1
f 194//1 348//1 196//1
f 348//1 349//1 196//1
f 196//1 349//1 198//1
f 349//1 350//1 198//1
f 198//1 350//1 200//1
f 350//1 351//1 200//1
f 200//1 351//1 202//1
f 351//1 352//1 202//1
f 202//1 352//1 204//1
f 352//1 353//1 204//1
f 204//1 353//1 206//1
f 353//1 354//1 206//1
f 206//1 354//1 208//1
f 354//1 297//1 208//1
f 208//1 297//1 210//1
f 297//1 298//1 210//1
f 210//1 298//1 212//1
f 298//1 299//1 212//1
f 212//1 299//1 214//1
f 299//1 300//1 214//1
f 214//1 300//1 216//1
f 300//1 301//1 216//1
f 216//1 301//1 218//1
f 301//1 302//1 218//1
f 218//1 302//1 220//1
f 302//1 303//1 220//1
f 220//1 303//1 222//1
f 303//1 304//1 222//1
f 222//1 304//1 224//1
f 304//1 305//1 224//1
f 224//1 305//1 226//1
f 305//1 306//1 226//1
f 226//1 306//1 228//1
f 306//1 307//1 228//1
f 228//1 307//1 230//1
f 307//1 308//1 230//1
f 230//1 308//1 232//1
f 308//1 309//1 232//1
f 232//1 309//1 234//1
f 309//1 310//1 234//1
f 234//1 310//1 236//1
f 310//1 311//1 236//1
f 236//1 311//1 312//1
f 326//1 327//1 104//1
f 327//1 121//1 104//1
f 104//1 121//1 103//1
f 121//1 180//1 103//1
f 103//1 180//1 102//1
f 180//1 178//1 102//1
f 102//1 178//1 101//1
f 178//1 176//1 101//1
f 101//1 176//1 100//1
f 176//1 174//1 100//1
f 100//1 174//1 99//1
f 174//1 172//1 99//1
f 99//1 172//1 98//1
f 172//1 170//1 98//1
f 98//1 170//1 97//1
f 170//1 168//1 97//1
f 97//1 168//1 96//1
f 168//1 166//1 96//1
f 96//1 166//1 95//1
f 166//1 164//1 95//1
f 95//1 164//1 94//1
f 164//1 162//1 94//1
f 94//1 162//1 93//1
f 162//1 160//1 93//1
f 93//1 160//1 92//1
f 160//1 158//1 92//1
f 92//1 158//1 91//1
f 158//1 156//1 91//1
f 91//1 156//1 90//1
f 156//1 154//1 90//1
f 90//1 154//1 89//1
f 154//1 152//1 89//1
f 89//1 152//1 88//1
f 152//1 150//1 88//1
f 88//1 150//1 87//1
f 150//1 148//1 87//1
f 87//1 148//1 86//1
f 148//1 146//1 86//1
f 86//1 146//1 85//1
f 146//1 144//1 85//1
f 85//1 144//1 84//1
f 144//1 142//1 84//1
f 84//1 142//1 83//1
f 142//1 140//1 83//1
f 83//1 140//1 82//1
f 140//1 138//1 82//1
f 82//1 138//1 81//1
f 138//1 136//1 81//1
f 81//1 136//1 80//1
f 136//1 134//1 80//1
f 80//1 134//1 79//1
f 134//1 132//1 79//1
f 79//1 132//1 78//1
f 132//1 130//1 78//1
f 78//1 130//1 77//1
f 130//1 128//1 77//1
f 77//1 128//1 76//1
f 128//1 126//1 76//1
f 76//1 126//1 75//1
f 126//1 124//1 75//1
f 75//1 124//1 74//1
f 124//1 123//1 74//1
f 74//1 123//1 73//1
f 123//1 72//1 73//1
usemtl Metalic
f 1//1 2//1 3//1
f 4//1 5//1 3//1
f 5//1 6//1 3//1
f 3//1 6//1 1//1
f 7//1 8//1 3//1
f 8//1 9//1 3//1
f 3//1 9//1 4//1
f 10//1 11//1 3//1
f 11//1 12//1 3//1
f 3//1 12//1 7//1
f 13//1 14//1 3//1
f 14//1 15//1 3//1
f 3//1 15//1 10//1
f 16//1 17//1 3//1
f 17//1 18//1 3//1
f 3//1 18//1 13//1
f 19//1 20//1 3//1
f 20//1 21//1 3//1
f 3//1 21//1 16//1
f 22//1 23//1 3//1
f 23//1 24//1 3//1
f 3//1 24//1 19//1
f 25//1 26//1 3//1
f 26//1 27//1 3//1
f 3//1 27//1 22//1
f 28//1 29//1 3//1
f 29//1 30//1 3//1
f 3//1 30//1 25//1
f 31//1 32//1 3//1
f 32//1 33//1 3//1
f 3//1 33//1 28//1
f 34//1 35//1 3//1
f 35//1 36//1 3//1
f 3//1 36//1 31//1
f 37//1 38//1 3//1
f 38//1 39//1 3//1
f 3//1 39//1 34//1
f 40//1 41//1 3//1
f 41//1 42//1 3//1
f 3//1 42//1 37//1
f 43//1 44//1 3//1
f 44//1 45//1 3//1
f 3//1 45//1 40//1
f 46//1 47//1 3//1
f 47//1 48//1 3//1
f 3//1 48//1 43//1
f 49//1 50//1 3//1
f 50//1 51//1 3//1
f 3//1 51//1 46//1
f 52//1 53//1 3//1
f 53//1 54//1 3//1
f 3//1 54//1 49//1
f 55//1 56//1 3//1
f 56//1 57//1 3//1
f 3//1 57//1 52//1
f 2//1 58//1 3//1
f 58//1 59//1 3//1
f 3//1 59//1 55//1
f 60//2 6//2 61//2
f 6//3 5//3 61//3
f 61//3 5//3 62//3
f 5//4 4//4 62//4
f 62//5 4//5 63//5
f 4//6 9//6 63//6
f 63//6 9//6 64//6
f 9//7 8//7 64//7
f 64//7 8//7 65//7
f 8//8 7//8 65//8
f 65//8 7//8 66//8
f 7//9 12//9 66//9
f 66//9 12//9 67//9
f 12//10 11//10 67//10
f 67//10 11//10 68//10
f 11//11 10//11 68//11
f 68//11 10//11 69//11
f 10//12 15//12 69//12
f 69//12 15//12 70//12
f 15//13 14//13 70//13
f 70//13 14//13 71//13
f 14//14 13//14 71//14
f 71//14 13//14 72//14
f 13//15 18//15 72//15
f 72//15 18//15 73//15
f 18//16 17//16 73//16
f 73//16 17//16 74//16
f 17//17 16//17 74//17
f 74//17 16//17 75//17
f 16//18 21//18 75//18
f 75//18 21//18 76//18
f 21//19 20//19 76//19
f 76//19 20//19 77//19
f 20//20 19//20 77//20
f 77//20 19//20 78//20
f 19//21 24//21 78//21
f 78//21 24//21 79//21
f 24//22 23//22 79//22
f 79//22 23//22 80//22
f 23//23 22//23 80//23
f 80//23 22//23 81//23
f 22//24 27//24 81//24
f 81//24 27//24 82//24
f 27//25 26//25 82//25
f 82//25 26//25 83//25
f 26//26 25//26 83//26
f 83//26 25//26 84//26
f 25//27 30//27 84//27
f 84//27 30//27 85//27
f 30//28 29//28 85//28
f 85//28 29//28 86//28
f 29//29 28//29 86//29
f 86//30 28//30 87//30
f 28//31 33//31 87//31
f 87//31 33//31 88//31
f 33//32 32//32 88//32
f 88//32 32//32 89//32
f 32//33 31//33 89//33
f 89//33 31//33 90//33
f 31//34 36//34 90//34
f 90//34 36//34 91//34
f 36//35 35//35 91//35
f 91//36 35//36 92//36
f 35//37 34//37 92//37
f 92//37 34//37 93//37
f 34//38 39//38 93//38
f 93//38 39//38 94//38
f 39//39 38//39 94//39
f 94//39 38//39 95//39
f 38//40 37//40 95//40
f 95//40 37//40 96//40
f 37//41 42//41 96//41
f 96//41 42//41 97//41
f 42//42 41//42 97//42
f 97//42 41//42 98//42
f 41//43 40//43 98//43
f 98//43 40//43 99//43
f 40//44 45//44 99//44
f 99//44 45//44 100//44
f 45//45 44//45 100//45
f 100//45 44//45 101//45
f 44//46 43//46 101//46
f 101//46 43//46 102//46
f 43//47 48//47 102//47
f 102//47 48//47 103//47
f 48//48 47//48 103//48
f 103//48 47//48 104//48
f 47//49 46//49 104//49
f 104//49 46//49 105//49
f 46//50 51//50 105//50
f 105//50 51//50 106//50
f 51//51 50//51 106//51
f 106//51 50//51 107//51
f 50//52 49//52 107//52
f 107//52 49//52 108//52
f 49//53 54//53 108//53
f 108//53 54//53 109//53
f 54//54 53//54 109//54
f 109//54 53//54 110//54
f 53//55 52//55 110//55
f 110//55 52//55 111//55
f 52//56 57//56 111//56
f 111//56 57//56 112//56
f 57//57 56//57 112//57
f 112//57 56//57 113//57
f 56//58 55//58 113//58
f 113//58 55//58 114//58
f 55//59 59//59 114//59
f 114//59 59//59 115//59
f 59//60 58//60 115//60
f 115//61 58//61 116//61
f 58//62 2//62 116//62
f 116//62 2//62 117//62
f 2//63 1//63 117//63
f 117//63 1//63 60//63
f 1//2 6//2 60//2
f 238//1 239//1 240//1
f 241//1 242//1 240//1
f 242//1 243//1 240//1
f 240//1 243//1 238//1
f 244//1 245//1 240//1
f 245//1 246//1 240//1
f 240//1 246//1 241//1
f 247//1 248//1 240//1
f 248//1 249//1 240//1
f 240//1 249//1 244//1
f 250//1 251//1 240//1
f 251//1 252//1 240//1
f 240//1 252//1 247//1
f 253//1 254//1 240//1
f 254//1 255//1 240//1
f 240//1 255//1 250//1
f 256//1 257//1 240//1
f 257//1 258//1 240//1
f 240//1 258//1 253//1
f 259//1 260//1 240//1
f 260//1 261//1 240//1
f 240//1 261//1 256//1
f 262//1 263//1 240//1
f 263//1 264//1 240//1
f 240//1 264//1 259//1
f 265//1 266//1 240//1
f 266//1 267//1 240//1
f 240//1 267//1 262//1
f 268//1 269//1 240//1
f 269//1 270//1 240//1
f 240//1 270//1 265//1
f 271//1 272//1 240//1
f 272//1 273//1 240//1
f 240//1 273//1 268//1
f 274//1 275//1 240//1
f 275//1 276//1 240//1
f 240//1 276//1 271//1
f 277//1 278//1 240//1
f 278//1 279//1 240//1
f 240//1 279//1 274//1
f 280//1 281//1 240//1
f 281//1 282//1 240//1
f 240//1 282//1 277//1
f 283//1 284//1 240//1
f 284//1 285//1 240//1
f 240//1 285//1 280//1
f 286//1 287//1 240//1
f 287//1 288//1 240//1
f 240//1 288//1 283//1
f 289//1 290//1 240//1
f 290//1 291//1 240//1
f 240//1 291//1 286//1
f 292//1 293//1 240//1
f 293//1 294//1 240//1
f 240//1 294//1 289//1
f 239//1 295//1 240//1
f 295//1 296//1 240//1
f 240//1 296//1 292//1
f 297//2 243//2 298//2
f 243//3 242//3 298//3
f 298//3 242//3 299//3
f 242//130 241//130 299//130
f 299//5 241//5 300//5
f 241//6 246//6 300//6
f 300//6 246//6 301//6
f 246//7 245//7 301//7
f 301//7 245//7 302//7
f 245//8 244//8 302//8
f 302//8 244//8 303//8
f 244//9 249//9 303//9
f 303//9 249//9 304//9
f 249//10 248//10 304//10
f 304//10 248//10 305//10
f 248//11 247//11 305//11
f 305//11 247//11 306//11
f 247//12 252//12 306//12
f 306//12 252//12 307//12
f 252//13 251//13 307//13
f 307//13 251//13 308//13
f 251//14 250//14 308//14
f 308//14 250//14 309//14
f 250//15 255//15 309//15
f 309//15 255//15 310//15
f 255//16 254//16 310//16
f 310//16 254//16 311//16
f 254//17 253//17 311//17
f 311//17 253//17 312//17
f 253//18 258//18 312//18
f 312//18 258//18 313//18
f 258//19 257//19 313//19
f 313//19 257//19 314//19
f 257//20 256//20 314//20
f 314//20 256//20 315//20
f 256//21 261//21 315//21
f 315//21 261//21 316//21
f 261//22 260//22 316//22
f 316//22 260//22 317//22
f 260//23 259//23 317//23
f 317//23 259//23 318//23
f 259//24 264//24 318//24
f 318//24 264//24 319//24
f 264//25 263//25 319//25
f 319//25 263//25 320//25
f 263//26 262//26 320//26
f 320//26 262//26 321//26
f 262//27 267//27 321//27
f 321//27 267//27 322//27
f 267//28 266//28 322//28
f 322//131 266//131 323//131
f 266//29 265//29 323//29
f 323//132 265//132 324//132
f 265//31 270//31 324//31
f 324//31 270//31 325//31
f 270//32 269//32 325//32
f 325//133 269//133 326//133
f 269//134 268//134 326//134
f 326//33 268//33 327//33
f 268//34 273//34 327//34
f 327//34 273//34 328//34
f 273//135 272//135 328//135
f 328//36 272//36 329//36
f 272//136 271//136 329//136
f 329//37 271//37 330//37
f 271//38 276//38 330//38
f 330//38 276//38 331//38
f 276//39 275//39 331//39
f 331//39 275//39 332//39
f 275//40 274//40 332//40
f 332//40 274//40 333//40
f 274//41 279//41 333//41
f 333//41 279//41 334//41
f 279//42 278//42 334//42
f 334//42 278//42 335//42
f 278//43 277//43 335//43
f 335//43 277//43 336//43
f 277//44 282//44 336//44
f 336//44 282//44 337//44
f 282//45 281//45 337//45
f 337//45 281//45 338//45
f 281//46 280//46 338//46
f 338//46 280//46 339//46
f 280//47 285//47 339//47
f 339//47 285//47 340//47
f 285//48 284//48 340//48
f 340//48 284//48 341//48
f 284//49 283//49 341//49
f 341//49 283//49 342//49
f 283//50 288//50 342//50
f 342//50 288//50 343//50
f 288//51 287//51 343//51
f 343//51 287//51 344//51
f 287//52 286//52 344//52
f 344//52 286//52 345//52
f 286//53 291//53 345//53
f 345//53 291//53 346//53
f 291//54 290//54 346//54
f 346//54 290//54 347//54
f 290//55 289//55 347//55
f 347//55 289//55 348//55
f 289//56 294//56 348//56
f 348//56 294//56 349//56
f 294//57 293//57 349//57
f 349//57 293//57 350//57
f 293//58 292//58 350//58
f 350//58 292//58 351//58
f 292//59 296//59 351//59
f 351//59 296//59 352//59
f 296//60 295//60 352//60
f 352//137 295//137 353//137
f 295//62 239//62 353//62
f 353//62 239//62 354//62
f 239//63 238//63 354//63
f 354//63 238//63 297//63
f 238//2 243//2 297//2
