# Blender 4.3.2
# www.blender.org
mtllib table.mtl
o table
v 0.910213 0.005774 0.902500
v 0.909620 0.005226 0.902500
v 0.919241 0.006186 0.902500
v 0.922457 -0.000807 0.902500
v 0.907929 0.002500 0.902500
v 0.922327 -0.001604 0.902500
v 0.922112 -0.002383 0.902500
v 0.922500 0.000000 0.902500
v 0.922457 0.000807 0.902500
v 0.922327 0.001604 0.902500
v -0.907929 0.002500 0.902500
v -0.907929 -0.002500 0.902500
v 0.907929 -0.002500 0.902500
v 0.918551 -0.006606 0.902500
v 0.919241 -0.006186 0.902500
v 0.921814 0.003134 0.902500
v 0.909089 0.004617 0.902500
v 0.908627 0.003954 0.902500
v -0.908239 0.003246 0.902500
v -0.914658 0.007492 0.902500
v -0.908627 0.003954 0.902500
v -0.909089 0.004617 0.902500
v 0.919881 -0.005694 0.902500
v 0.920466 -0.005136 0.902500
v 0.920986 -0.004518 0.902500
v 0.921437 -0.003848 0.902500
v 0.921814 -0.003134 0.902500
v 0.921437 0.003848 0.902500
v 0.920986 0.004518 0.902500
v 0.922112 0.002383 0.902500
v 0.908239 0.003246 0.902500
v -0.916268 0.007392 0.902500
v -0.917056 0.007213 0.902500
v -0.920986 0.004518 0.902500
v -0.921437 0.003848 0.902500
v -0.921814 0.003134 0.902500
v -0.922112 0.002383 0.902500
v -0.922327 0.001604 0.902500
v -0.922457 0.000807 0.902500
v -0.922500 -0.000000 0.902500
v -0.922457 -0.000807 0.902500
v -0.922327 -0.001604 0.902500
v -0.922112 -0.002383 0.902500
v -0.921437 -0.003848 0.902500
v -0.909089 -0.004617 0.902500
v -0.908627 -0.003954 0.902500
v 0.908239 -0.003246 0.902500
v 0.908627 -0.003954 0.902500
v 0.909089 -0.004617 0.902500
v -0.910862 0.006255 0.902500
v -0.911559 0.006664 0.902500
v -0.912296 0.006995 0.902500
v -0.913854 0.007412 0.902500
v -0.913064 0.007246 0.902500
v 0.920466 0.005136 0.902500
v 0.919881 0.005694 0.902500
v -0.917820 0.006950 0.902500
v -0.918551 0.006606 0.902500
v -0.919241 0.006186 0.902500
v -0.919881 0.005694 0.902500
v -0.920466 0.005136 0.902500
v -0.909620 -0.005226 0.902500
v -0.920986 -0.004518 0.902500
v -0.920466 -0.005136 0.902500
v -0.911559 -0.006664 0.902500
v -0.910862 -0.006255 0.902500
v -0.918551 -0.006606 0.902500
v -0.910213 -0.005774 0.902500
v -0.921814 -0.003134 0.902500
v -0.908239 -0.003246 0.902500
v 0.909620 -0.005226 0.902500
v 0.910213 -0.005774 0.902500
v 0.910862 -0.006255 0.902500
v -0.909620 0.005226 0.902500
v -0.910213 0.005774 0.902500
v 0.915466 -0.007486 0.902500
v 0.916268 -0.007392 0.902500
v -0.915466 0.007486 0.902500
v -0.919881 -0.005694 0.902500
v -0.919241 -0.006186 0.902500
v -0.914658 -0.007492 0.902500
v -0.913854 -0.007412 0.902500
v 0.911559 -0.006664 0.902500
v 0.912296 -0.006995 0.902500
v 0.913064 -0.007246 0.902500
v 0.913854 -0.007412 0.902500
v 0.914658 -0.007492 0.902500
v 0.917056 -0.007213 0.902500
v 0.917820 -0.006950 0.902500
v 0.913064 0.007246 0.902500
v 0.915466 0.007486 0.902500
v 0.913854 0.007412 0.902500
v 0.914658 0.007492 0.902500
v -0.913064 -0.007246 0.902500
v -0.912296 -0.006995 0.902500
v 0.910862 0.006255 0.902500
v 0.918551 0.006606 0.902500
v 0.917820 0.006950 0.902500
v 0.912296 0.006995 0.902500
v 0.911559 0.006664 0.902500
v 0.917056 0.007213 0.902500
v 0.916268 0.007392 0.902500
v -0.917820 -0.006950 0.902500
v -0.917056 -0.007213 0.902500
v -0.915466 -0.007486 0.902500
v -0.916268 -0.007392 0.902500
v 0.907929 -0.002500 0.750000
v 0.908239 -0.003246 0.750000
v 0.908627 -0.003954 0.750000
v 0.909089 -0.004617 0.750000
v 0.909620 -0.005226 0.750000
v 0.910213 -0.005774 0.750000
v 0.910862 -0.006255 0.750000
v 0.911559 -0.006664 0.750000
v 0.912296 -0.006995 0.750000
v 0.913064 -0.007246 0.750000
v 0.913854 -0.007412 0.750000
v 0.914658 -0.007492 0.750000
v 0.915466 -0.007486 0.750000
v 0.916268 -0.007392 0.750000
v 0.917056 -0.007213 0.750000
v 0.917820 -0.006950 0.750000
v 0.918551 -0.006606 0.750000
v 0.919241 -0.006186 0.750000
v 0.919881 -0.005694 0.750000
v 0.920466 -0.005136 0.750000
v 0.920986 -0.004518 0.750000
v 0.921437 -0.003848 0.750000
v 0.921814 -0.003134 0.750000
v 0.922112 -0.002383 0.750000
v 0.922327 -0.001604 0.750000
v 0.922457 -0.000807 0.750000
v 0.922500 0.000000 0.750000
v 0.922457 0.000807 0.750000
v 0.922327 0.001604 0.750000
v 0.922112 0.002383 0.750000
v 0.921814 0.003134 0.750000
v 0.921437 0.003848 0.750000
v 0.920986 0.004518 0.750000
v 0.920466 0.005136 0.750000
v 0.919881 0.005694 0.750000
v 0.919241 0.006186 0.750000
v 0.918551 0.006606 0.750000
v 0.917820 0.006950 0.750000
v 0.917056 0.007213 0.750000
v 0.916268 0.007392 0.750000
v 0.915466 0.007486 0.750000
v 0.914658 0.007492 0.750000
v 0.913854 0.007412 0.750000
v 0.913064 0.007246 0.750000
v 0.912296 0.006995 0.750000
v 0.911559 0.006664 0.750000
v 0.910862 0.006255 0.750000
v 0.910213 0.005774 0.750000
v 0.909620 0.005226 0.750000
v 0.909089 0.004617 0.750000
v 0.908627 0.003954 0.750000
v 0.908239 0.003246 0.750000
v 0.907929 0.002500 0.750000
v 0.762500 -0.002500 0.750000
v 0.762500 0.002500 0.750000
v -0.907929 0.002500 0.750000
v -0.908239 0.003246 0.750000
v -0.908627 0.003954 0.750000
v -0.909089 0.004617 0.750000
v -0.909620 0.005226 0.750000
v -0.910213 0.005774 0.750000
v -0.910862 0.006255 0.750000
v -0.911559 0.006664 0.750000
v -0.912296 0.006995 0.750000
v -0.913064 0.007246 0.750000
v -0.913854 0.007412 0.750000
v -0.914658 0.007492 0.750000
v -0.915466 0.007486 0.750000
v -0.916268 0.007392 0.750000
v -0.917056 0.007213 0.750000
v -0.917820 0.006950 0.750000
v -0.918551 0.006606 0.750000
v -0.919241 0.006186 0.750000
v -0.919881 0.005694 0.750000
v -0.920466 0.005136 0.750000
v -0.920986 0.004518 0.750000
v -0.921437 0.003848 0.750000
v -0.921814 0.003134 0.750000
v -0.922112 0.002383 0.750000
v -0.922327 0.001604 0.750000
v -0.922457 0.000807 0.750000
v -0.922500 -0.000000 0.750000
v -0.922457 -0.000807 0.750000
v -0.922327 -0.001604 0.750000
v -0.922112 -0.002383 0.750000
v -0.921814 -0.003134 0.750000
v -0.921437 -0.003848 0.750000
v -0.920986 -0.004518 0.750000
v -0.920466 -0.005136 0.750000
v -0.919881 -0.005694 0.750000
v -0.919241 -0.006186 0.750000
v -0.918551 -0.006606 0.750000
v -0.917820 -0.006950 0.750000
v -0.917056 -0.007213 0.750000
v -0.916268 -0.007392 0.750000
v -0.915466 -0.007486 0.750000
v -0.914658 -0.007492 0.750000
v -0.913854 -0.007412 0.750000
v -0.913064 -0.007246 0.750000
v -0.912296 -0.006995 0.750000
v -0.911559 -0.006664 0.750000
v -0.910862 -0.006255 0.750000
v -0.910213 -0.005774 0.750000
v -0.909620 -0.005226 0.750000
v -0.909089 -0.004617 0.750000
v -0.908627 -0.003954 0.750000
v -0.908239 -0.003246 0.750000
v -0.907929 -0.002500 0.750000
v -0.762500 0.002500 0.750000
v -0.762500 -0.002500 0.750000
v -0.025000 -0.025000 0.700000
v -0.025000 -0.025000 -0.010000
v -0.025000 -1.000000 0.700000
v -0.025000 -1.000000 -0.010000
v -0.600000 0.025000 0.700000
v -0.600000 0.025000 -0.010000
v -0.600000 -0.025000 0.700000
v -0.600000 -0.025000 -0.010000
v -0.762500 1.370000 0.750000
v -0.762500 1.370000 0.700000
v -0.762500 -1.370000 0.700000
v -0.762500 -1.370000 0.750000
v -0.025000 0.025000 -0.010000
v -0.025000 0.025000 0.700000
v 0.762500 1.370000 0.750000
v 0.762500 -1.370000 0.750000
v 0.025000 -1.000000 0.700000
v 0.025000 -1.000000 -0.010000
v 0.762500 -1.370000 0.700000
v 0.025000 -0.025000 -0.010000
v 0.025000 -0.025000 0.700000
v 0.600000 -0.025000 0.700000
v 0.600000 -0.025000 -0.010000
v 0.600000 0.025000 -0.010000
v 0.600000 0.025000 0.700000
v 0.762500 1.370000 0.700000
v -0.025000 1.000000 -0.010000
v 0.025000 1.000000 -0.010000
v 0.025000 0.025000 -0.010000
v 0.025000 0.025000 0.700000
v 0.025000 1.000000 0.700000
v -0.025000 1.000000 0.700000
v 0.730654 0.002500 0.750000
v 0.000000 0.002500 0.750000
v -0.730654 0.002500 0.750000
v -0.730654 1.370000 0.750000
v 0.000000 1.370000 0.750000
v 0.730654 1.370000 0.750000
v 0.730654 -0.002500 0.750000
v 0.000000 -0.002500 0.750000
v -0.730654 -0.002500 0.750000
v -0.730654 -1.370000 0.750000
v 0.000000 -1.370000 0.750000
v 0.730654 -1.370000 0.750000
v -0.762500 1.337533 0.750000
v 0.762500 1.337533 0.750000
v 0.730654 1.337533 0.750000
v 0.000000 1.337533 0.750000
v -0.730654 1.337533 0.750000
v -0.762500 -1.337533 0.750000
v 0.762500 -1.337533 0.750000
v -0.730654 -1.337533 0.750000
v 0.000000 -1.337533 0.750000
v 0.730654 -1.337533 0.750000
v -0.013182 0.002500 0.750000
v -0.013182 1.370000 0.750000
v -0.013182 1.337533 0.750000
v 0.013182 0.002500 0.750000
v 0.013182 1.370000 0.750000
v 0.013182 1.337533 0.750000
v 0.013182 -0.002500 0.750000
v 0.013182 -1.370000 0.750000
v 0.013182 -1.337533 0.750000
v -0.013182 -0.002500 0.750000
v -0.013182 -1.370000 0.750000
v -0.013182 -1.337533 0.750000
vn -0.0000 -0.0000 1.0000
vn 0.0001 -0.0000 1.0000
vn 0.0002 -0.0000 1.0000
vn -0.0002 -0.0000 1.0000
vn -0.0001 -0.0000 1.0000
vn -0.0003 -0.0000 1.0000
vn 0.0003 -0.0000 1.0000
vn -0.0004 -0.0000 1.0000
vn -0.9235 -0.3837 -0.0000
vn -0.8770 -0.4805 -0.0000
vn -0.8768 -0.4809 -0.0000
vn -0.8201 -0.5722 -0.0000
vn -0.8200 -0.5723 -0.0000
vn -0.7538 -0.6571 -0.0000
vn -0.6787 -0.7344 -0.0000
vn -0.6788 -0.7343 -0.0000
vn -0.5958 -0.8031 -0.0000
vn -0.5059 -0.8626 -0.0000
vn -0.5060 -0.8625 -0.0000
vn -0.4103 -0.9119 -0.0000
vn -0.4102 -0.9120 -0.0000
vn -0.3098 -0.9508 -0.0000
vn -0.2058 -0.9786 -0.0000
vn -0.0993 -0.9951 -0.0000
vn 0.0083 -1.0000 -0.0000
vn 0.1158 -0.9933 -0.0000
vn 0.2220 -0.9751 -0.0000
vn 0.2219 -0.9751 -0.0000
vn 0.3256 -0.9455 -0.0000
vn 0.3255 -0.9456 -0.0000
vn 0.4253 -0.9050 -0.0000
vn 0.5201 -0.8541 -0.0000
vn 0.5202 -0.8540 -0.0000
vn 0.6091 -0.7931 -0.0000
vn 0.6090 -0.7932 -0.0000
vn 0.6908 -0.7231 -0.0000
vn 0.6909 -0.7230 -0.0000
vn 0.7646 -0.6445 -0.0000
vn 0.7645 -0.6446 -0.0000
vn 0.8294 -0.5586 -0.0000
vn 0.8847 -0.4662 -0.0000
vn 0.8848 -0.4660 -0.0000
vn 0.9297 -0.3684 -0.0000
vn 0.9297 -0.3682 -0.0000
vn 0.9639 -0.2663 -0.0000
vn 0.9640 -0.2659 -0.0000
vn 0.9869 -0.1611 -0.0000
vn 0.9870 -0.1609 -0.0000
vn 0.9986 -0.0537 -0.0000
vn 0.9985 -0.0539 -0.0000
vn 0.9985 0.0539 -0.0000
vn 0.9986 0.0537 -0.0000
vn 0.9870 0.1609 -0.0000
vn 0.9869 0.1611 -0.0000
vn 0.9640 0.2659 -0.0000
vn 0.9639 0.2663 -0.0000
vn 0.9297 0.3682 -0.0000
vn 0.9297 0.3684 -0.0000
vn 0.8848 0.4660 -0.0000
vn 0.8847 0.4662 -0.0000
vn 0.8294 0.5586 -0.0000
vn 0.7645 0.6446 -0.0000
vn 0.7646 0.6445 -0.0000
vn 0.6909 0.7230 -0.0000
vn 0.6908 0.7231 -0.0000
vn 0.6090 0.7932 -0.0000
vn 0.6091 0.7931 -0.0000
vn 0.5202 0.8540 -0.0000
vn 0.5201 0.8541 -0.0000
vn 0.4253 0.9050 -0.0000
vn 0.3255 0.9455 -0.0000
vn 0.3256 0.9455 -0.0000
vn 0.2219 0.9751 -0.0000
vn 0.2220 0.9751 -0.0000
vn 0.1158 0.9933 -0.0000
vn 0.0083 1.0000 -0.0000
vn -0.0993 0.9951 -0.0000
vn -0.2058 0.9786 -0.0000
vn -0.3098 0.9508 -0.0000
vn -0.4103 0.9120 -0.0000
vn -0.4103 0.9119 -0.0000
vn -0.5060 0.8625 -0.0000
vn -0.5059 0.8626 -0.0000
vn -0.5958 0.8031 -0.0000
vn -0.6788 0.7343 -0.0000
vn -0.6787 0.7344 -0.0000
vn -0.7538 0.6571 -0.0000
vn -0.8200 0.5723 -0.0000
vn -0.8201 0.5722 -0.0000
vn -0.8768 0.4809 -0.0000
vn -0.8770 0.4805 -0.0000
vn -0.9235 0.3837 -0.0000
vn 0.0001 -0.0000 -1.0000
vn -0.0000 -0.0000 -1.0000
vn -0.0001 -0.0000 -1.0000
vn 0.0002 -0.0000 -1.0000
vn -0.0002 -0.0000 -1.0000
vn 0.9235 0.3837 -0.0000
vn 0.8770 0.4805 -0.0000
vn 0.8768 0.4809 -0.0000
vn 0.8201 0.5722 -0.0000
vn 0.8200 0.5723 -0.0000
vn 0.7538 0.6571 -0.0000
vn 0.6787 0.7344 -0.0000
vn 0.6788 0.7343 -0.0000
vn 0.5958 0.8031 -0.0000
vn 0.5059 0.8626 -0.0000
vn 0.5060 0.8625 -0.0000
vn 0.4103 0.9119 -0.0000
vn 0.4102 0.9120 -0.0000
vn 0.3098 0.9508 -0.0000
vn 0.2058 0.9786 -0.0000
vn 0.0993 0.9951 -0.0000
vn -0.0083 1.0000 -0.0000
vn -0.1158 0.9933 -0.0000
vn -0.2220 0.9751 -0.0000
vn -0.2219 0.9751 -0.0000
vn -0.3256 0.9455 -0.0000
vn -0.3255 0.9455 -0.0000
vn -0.4253 0.9050 -0.0000
vn -0.5201 0.8541 -0.0000
vn -0.5202 0.8540 -0.0000
vn -0.6091 0.7931 -0.0000
vn -0.6090 0.7932 -0.0000
vn -0.6908 0.7231 -0.0000
vn -0.6909 0.7230 -0.0000
vn -0.7646 0.6445 -0.0000
vn -0.7645 0.6446 -0.0000
vn -0.8294 0.5586 -0.0000
vn -0.8847 0.4662 -0.0000
vn -0.8848 0.4660 -0.0000
vn -0.9297 0.3684 -0.0000
vn -0.9297 0.3682 -0.0000
vn -0.9639 0.2663 -0.0000
vn -0.9640 0.2659 -0.0000
vn -0.9869 0.1611 -0.0000
vn -0.9870 0.1609 -0.0000
vn -0.9986 0.0537 -0.0000
vn -0.9985 0.0539 -0.0000
vn -0.9985 -0.0539 -0.0000
vn -0.9986 -0.0537 -0.0000
vn -0.9870 -0.1609 -0.0000
vn -0.9869 -0.1611 -0.0000
vn -0.9640 -0.2659 -0.0000
vn -0.9639 -0.2663 -0.0000
vn -0.9297 -0.3682 -0.0000
vn -0.9297 -0.3684 -0.0000
vn -0.8848 -0.4660 -0.0000
vn -0.8847 -0.4662 -0.0000
vn -0.8294 -0.5586 -0.0000
vn -0.7645 -0.6446 -0.0000
vn -0.7646 -0.6445 -0.0000
vn -0.6909 -0.7230 -0.0000
vn -0.6908 -0.7231 -0.0000
vn -0.6090 -0.7932 -0.0000
vn -0.6091 -0.7931 -0.0000
vn -0.5202 -0.8540 -0.0000
vn -0.5201 -0.8541 -0.0000
vn -0.4253 -0.9050 -0.0000
vn -0.3255 -0.9456 -0.0000
vn -0.3256 -0.9455 -0.0000
vn -0.2219 -0.9751 -0.0000
vn -0.2220 -0.9751 -0.0000
vn -0.1158 -0.9933 -0.0000
vn -0.0083 -1.0000 -0.0000
vn 0.0993 -0.9951 -0.0000
vn 0.2058 -0.9786 -0.0000
vn 0.3098 -0.9508 -0.0000
vn 0.4102 -0.9120 -0.0000
vn 0.4103 -0.9119 -0.0000
vn 0.5060 -0.8625 -0.0000
vn 0.5059 -0.8626 -0.0000
vn 0.5958 -0.8031 -0.0000
vn 0.6788 -0.7343 -0.0000
vn 0.6787 -0.7344 -0.0000
vn 0.7538 -0.6571 -0.0000
vn 0.8200 -0.5723 -0.0000
vn 0.8201 -0.5722 -0.0000
vn 0.8768 -0.4809 -0.0000
vn 0.8770 -0.4805 -0.0000
vn 0.9235 -0.3837 -0.0000
vn -1.0000 -0.0000 -0.0000
vn -0.0000 1.0000 -0.0000
vn -0.0000 -1.0000 -0.0000
vn 1.0000 -0.0000 -0.0000
s 0
usemtl Material.001
f 1//1 2//1 3//1
f 4//1 5//1 6//1
f 5//2 7//2 6//2
f 4//1 8//1 5//1
f 8//1 9//1 5//1
f 5//1 9//1 10//1
f 14//1 15//1 5//1
f 16//1 17//1 18//1
f 11//1 19//1 20//1
f 19//3 21//3 20//3
f 20//1 21//1 22//1
f 15//4 23//4 5//4
f 23//2 24//2 5//2
f 5//1 24//1 25//1
f 25//2 26//2 5//2
f 26//5 27//5 5//5
f 5//1 27//1 7//1
f 17//1 16//1 2//1
f 16//1 28//1 2//1
f 2//1 28//1 29//1
f 10//1 30//1 5//1
f 30//1 16//1 5//1
f 5//1 16//1 31//1
f 16//1 18//1 31//1
f 32//3 33//3 12//3
f 34//5 35//5 12//5
f 35//2 36//2 12//2
f 12//1 36//1 37//1
f 37//5 38//5 12//5
f 38//1 39//1 12//1
f 12//1 39//1 40//1
f 40//1 41//1 12//1
f 41//1 42//1 12//1
f 12//1 42//1 43//1
f 44//1 45//1 46//1
f 13//1 47//1 5//1
f 47//1 48//1 5//1
f 5//1 48//1 49//1
f 50//1 51//1 20//1
f 51//1 52//1 20//1
f 20//1 52//1 53//1
f 52//1 54//1 53//1
f 29//1 55//1 2//1
f 55//1 56//1 2//1
f 2//1 56//1 3//1
f 33//4 57//4 12//4
f 57//1 58//1 12//1
f 12//5 58//5 59//5
f 59//3 60//3 12//3
f 60//5 61//5 12//5
f 12//1 61//1 34//1
f 45//1 44//1 62//1
f 44//1 63//1 62//1
f 62//1 63//1 64//1
f 65//1 66//1 67//1
f 66//1 68//1 67//1
f 67//1 68//1 62//1
f 43//1 69//1 12//1
f 69//1 44//1 12//1
f 12//1 44//1 70//1
f 44//1 46//1 70//1
f 49//6 71//6 5//6
f 71//7 72//7 5//7
f 5//1 72//1 73//1
f 22//4 74//4 20//4
f 74//3 75//3 20//3
f 20//5 75//5 50//5
f 5//1 76//1 77//1
f 11//5 20//5 12//5
f 20//1 78//1 12//1
f 12//1 78//1 32//1
f 64//1 79//1 62//1
f 79//1 80//1 62//1
f 62//1 80//1 67//1
f 81//2 82//2 67//2
f 73//8 83//8 5//8
f 83//7 84//7 5//7
f 5//4 84//4 85//4
f 85//1 86//1 5//1
f 86//3 87//3 5//3
f 5//5 87//5 76//5
f 77//4 88//4 5//4
f 88//3 89//3 5//3
f 5//1 89//1 14//1
f 90//5 91//5 92//5
f 91//3 93//3 92//3
f 82//5 94//5 67//5
f 94//1 95//1 67//1
f 67//1 95//1 65//1
f 1//1 3//1 96//1
f 3//1 97//1 96//1
f 96//1 97//1 98//1
f 90//1 99//1 91//1
f 99//1 100//1 91//1
f 91//5 100//5 96//5
f 98//1 101//1 96//1
f 101//1 102//1 96//1
f 96//2 102//2 91//2
f 67//1 103//1 81//1
f 103//1 104//1 81//1
f 81//1 104//1 105//1
f 104//4 106//4 105//4
f 13//9 107//9 108//9
f 13//9 108//9 47//9
f 108//10 109//10 47//10
f 47//11 109//11 48//11
f 109//12 110//12 48//12
f 48//13 110//13 49//13
f 110//14 111//14 49//14
f 49//14 111//14 71//14
f 111//15 112//15 71//15
f 71//16 112//16 72//16
f 112//17 113//17 72//17
f 72//17 113//17 73//17
f 113//18 114//18 73//18
f 73//19 114//19 83//19
f 114//20 115//20 83//20
f 83//21 115//21 84//21
f 115//22 116//22 84//22
f 84//22 116//22 85//22
f 116//23 117//23 85//23
f 85//23 117//23 86//23
f 117//24 118//24 86//24
f 86//24 118//24 87//24
f 118//25 119//25 87//25
f 87//25 119//25 76//25
f 119//26 120//26 76//26
f 76//26 120//26 77//26
f 120//27 121//27 77//27
f 77//28 121//28 88//28
f 121//29 122//29 88//29
f 88//30 122//30 89//30
f 122//31 123//31 89//31
f 89//31 123//31 14//31
f 123//32 124//32 14//32
f 14//33 124//33 15//33
f 124//34 125//34 15//34
f 15//35 125//35 23//35
f 125//36 126//36 23//36
f 23//37 126//37 24//37
f 126//38 127//38 24//38
f 24//39 127//39 25//39
f 127//40 128//40 25//40
f 25//40 128//40 26//40
f 128//41 129//41 26//41
f 26//42 129//42 27//42
f 129//43 130//43 27//43
f 27//44 130//44 7//44
f 130//45 131//45 7//45
f 7//46 131//46 6//46
f 131//47 132//47 6//47
f 6//48 132//48 4//48
f 132//49 133//49 4//49
f 4//50 133//50 8//50
f 133//51 134//51 8//51
f 8//52 134//52 9//52
f 134//53 135//53 9//53
f 9//54 135//54 10//54
f 135//55 136//55 10//55
f 10//56 136//56 30//56
f 136//57 137//57 30//57
f 30//58 137//58 16//58
f 137//59 138//59 16//59
f 16//60 138//60 28//60
f 138//61 139//61 28//61
f 28//61 139//61 29//61
f 139//62 140//62 29//62
f 29//63 140//63 55//63
f 140//64 141//64 55//64
f 55//65 141//65 56//65
f 141//66 142//66 56//66
f 56//67 142//67 3//67
f 142//68 143//68 3//68
f 3//69 143//69 97//69
f 143//70 144//70 97//70
f 97//70 144//70 98//70
f 144//71 145//71 98//71
f 98//72 145//72 101//72
f 145//73 146//73 101//73
f 101//74 146//74 102//74
f 146//75 147//75 102//75
f 102//75 147//75 91//75
f 147//76 148//76 91//76
f 91//76 148//76 93//76
f 148//77 149//77 93//77
f 93//77 149//77 92//77
f 149//78 150//78 92//78
f 92//78 150//78 90//78
f 150//79 151//79 90//79
f 90//79 151//79 99//79
f 151//80 152//80 99//80
f 99//81 152//81 100//81
f 152//82 153//82 100//82
f 100//83 153//83 96//83
f 153//84 154//84 96//84
f 96//84 154//84 1//84
f 154//85 155//85 1//85
f 1//86 155//86 2//86
f 155//87 156//87 2//87
f 2//87 156//87 17//87
f 156//88 157//88 17//88
f 17//89 157//89 18//89
f 157//90 158//90 18//90
f 18//91 158//91 31//91
f 158//92 159//92 31//92
f 31//92 159//92 5//92
f 142//93 141//93 107//93
f 156//93 155//93 148//93
f 138//93 137//93 107//93
f 137//94 136//94 107//94
f 107//95 136//95 135//95
f 135//94 134//94 107//94
f 134//94 133//94 107//94
f 107//94 133//94 132//94
f 156//94 148//94 157//94
f 127//94 126//94 110//94
f 132//94 131//94 107//94
f 131//94 130//94 107//94
f 107//94 130//94 108//94
f 130//94 109//94 108//94
f 107//94 159//94 148//94
f 159//95 158//95 148//95
f 148//93 158//93 157//93
f 141//95 140//95 107//95
f 140//94 139//94 107//94
f 107//95 139//95 138//95
f 127//94 110//94 128//94
f 150//94 153//94 151//94
f 153//94 152//94 151//94
f 155//94 154//94 148//94
f 154//94 153//94 148//94
f 148//94 153//94 149//94
f 153//94 150//94 149//94
f 109//94 130//94 110//94
f 130//94 129//94 110//94
f 110//94 129//94 128//94
f 126//94 125//94 110//94
f 125//94 124//94 110//94
f 110//94 124//94 111//94
f 148//93 147//93 107//93
f 147//95 146//95 107//95
f 107//96 146//96 145//96
f 145//94 144//94 107//94
f 144//97 143//97 107//97
f 107//94 143//94 142//94
f 111//94 124//94 112//94
f 124//94 123//94 112//94
f 112//94 123//94 122//94
f 121//94 114//94 122//94
f 114//94 113//94 122//94
f 122//94 113//94 112//94
f 117//94 116//94 118//94
f 116//94 119//94 118//94
f 121//94 120//94 114//94
f 120//94 119//94 114//94
f 114//94 119//94 115//94
f 119//94 116//94 115//94
f 11//98 162//98 163//98
f 11//98 163//98 19//98
f 163//99 164//99 19//99
f 19//100 164//100 21//100
f 164//101 165//101 21//101
f 21//102 165//102 22//102
f 165//103 166//103 22//103
f 22//103 166//103 74//103
f 166//104 167//104 74//104
f 74//105 167//105 75//105
f 167//106 168//106 75//106
f 75//106 168//106 50//106
f 168//107 169//107 50//107
f 50//108 169//108 51//108
f 169//109 170//109 51//109
f 51//110 170//110 52//110
f 170//111 171//111 52//111
f 52//111 171//111 54//111
f 171//112 172//112 54//112
f 54//112 172//112 53//112
f 172//113 173//113 53//113
f 53//113 173//113 20//113
f 173//114 174//114 20//114
f 20//114 174//114 78//114
f 174//115 175//115 78//115
f 78//115 175//115 32//115
f 175//116 176//116 32//116
f 32//117 176//117 33//117
f 176//118 177//118 33//118
f 33//119 177//119 57//119
f 177//120 178//120 57//120
f 57//120 178//120 58//120
f 178//121 179//121 58//121
f 58//122 179//122 59//122
f 179//123 180//123 59//123
f 59//124 180//124 60//124
f 180//125 181//125 60//125
f 60//126 181//126 61//126
f 181//127 182//127 61//127
f 61//128 182//128 34//128
f 182//129 183//129 34//129
f 34//129 183//129 35//129
f 183//130 184//130 35//130
f 35//131 184//131 36//131
f 184//132 185//132 36//132
f 36//133 185//133 37//133
f 185//134 186//134 37//134
f 37//135 186//135 38//135
f 186//136 187//136 38//136
f 38//137 187//137 39//137
f 187//138 188//138 39//138
f 39//139 188//139 40//139
f 188//140 189//140 40//140
f 40//141 189//141 41//141
f 189//142 190//142 41//142
f 41//143 190//143 42//143
f 190//144 191//144 42//144
f 42//145 191//145 43//145
f 191//146 192//146 43//146
f 43//147 192//147 69//147
f 192//148 193//148 69//148
f 69//149 193//149 44//149
f 193//150 194//150 44//150
f 44//150 194//150 63//150
f 194//151 195//151 63//151
f 63//152 195//152 64//152
f 195//153 196//153 64//153
f 64//154 196//154 79//154
f 196//155 197//155 79//155
f 79//156 197//156 80//156
f 197//157 198//157 80//157
f 80//158 198//158 67//158
f 198//159 199//159 67//159
f 67//159 199//159 103//159
f 199//160 200//160 103//160
f 103//161 200//161 104//161
f 200//162 201//162 104//162
f 104//163 201//163 106//163
f 201//164 202//164 106//164
f 106//164 202//164 105//164
f 202//165 203//165 105//165
f 105//165 203//165 81//165
f 203//166 204//166 81//166
f 81//166 204//166 82//166
f 204//167 205//167 82//167
f 82//167 205//167 94//167
f 205//168 206//168 94//168
f 94//168 206//168 95//168
f 206//169 207//169 95//169
f 95//170 207//170 65//170
f 207//171 208//171 65//171
f 65//172 208//172 66//172
f 208//173 209//173 66//173
f 66//173 209//173 68//173
f 209//174 210//174 68//174
f 68//175 210//175 62//175
f 210//176 211//176 62//176
f 62//176 211//176 45//176
f 211//177 212//177 45//177
f 45//178 212//178 46//178
f 212//179 213//179 46//179
f 46//180 213//180 70//180
f 213//181 214//181 70//181
f 70//181 214//181 12//181
f 162//94 214//94 163//94
f 214//94 173//94 163//94
f 163//97 173//97 164//97
f 192//94 191//94 214//94
f 171//94 170//94 172//94
f 170//94 173//94 172//94
f 170//94 169//94 173//94
f 169//94 168//94 173//94
f 173//94 168//94 167//94
f 191//94 190//94 214//94
f 190//94 189//94 214//94
f 214//94 189//94 188//94
f 188//94 187//94 214//94
f 187//94 186//94 214//94
f 214//93 186//93 185//93
f 185//94 184//94 214//94
f 184//95 183//95 214//95
f 214//93 183//93 182//93
f 167//94 166//94 173//94
f 166//94 165//94 173//94
f 173//93 165//93 164//93
f 192//94 214//94 193//94
f 214//94 213//94 193//94
f 193//94 213//94 212//94
f 209//94 208//94 198//94
f 196//94 195//94 210//94
f 182//95 181//95 214//95
f 181//93 180//93 214//93
f 214//95 180//95 179//95
f 179//94 178//94 214//94
f 178//96 177//96 214//96
f 214//94 177//94 176//94
f 212//94 211//94 193//94
f 211//94 210//94 193//94
f 193//94 210//94 194//94
f 210//94 195//94 194//94
f 176//95 175//95 214//95
f 175//93 174//93 214//93
f 214//95 174//95 173//95
f 209//94 198//94 210//94
f 198//94 197//94 210//94
f 210//94 197//94 196//94
f 208//94 207//94 198//94
f 207//94 206//94 198//94
f 198//94 206//94 205//94
f 205//94 204//94 198//94
f 204//94 203//94 198//94
f 198//94 203//94 199//94
f 199//94 203//94 200//94
f 203//94 202//94 200//94
f 200//94 202//94 201//94
f 217//182 218//182 219//182
f 218//182 220//182 219//182
f 221//182 222//182 223//182
f 222//182 224//182 223//182
f 215//182 261//182 225//182 226//182
f 215//182 226//182 216//182
f 226//182 227//182 216//182
f 216//182 227//182 228//182 266//182
f 229//183 222//183 230//183
f 222//183 221//183 230//183
f 223//184 224//184 217//184
f 224//184 218//184 217//184
f 219//184 220//184 233//184
f 220//184 234//184 233//184
f 227//184 235//184 228//184
f 235//184 232//184 260//184 278//184 259//184 281//184 258//184 228//184
f 234//185 236//185 233//185
f 236//185 237//185 233//185
f 237//184 236//184 238//184
f 236//184 239//184 238//184
f 239//185 240//185 238//185
f 240//185 241//185 238//185
f 160//185 267//185 232//185 235//185
f 160//185 235//185 161//185
f 235//185 242//185 161//185
f 161//185 242//185 231//185 262//185
f 234//94 220//94 236//94
f 220//94 218//94 236//94
f 243//94 244//94 229//94
f 244//94 245//94 229//94
f 240//94 239//94 245//94
f 239//94 236//94 245//94
f 245//94 236//94 229//94
f 236//94 218//94 229//94
f 229//94 218//94 222//94
f 218//94 224//94 222//94
f 240//183 245//183 241//183
f 245//183 246//183 241//183
f 245//185 244//185 246//185
f 244//185 247//185 246//185
f 244//183 243//183 247//183
f 243//183 248//183 247//183
f 242//183 226//183 231//183
f 226//183 225//183 252//183 272//183 253//183 275//183 254//183 231//183
f 248//182 243//182 230//182
f 243//182 229//182 230//182
f 227//94 226//94 223//94
f 226//94 221//94 223//94
f 230//94 221//94 248//94
f 221//94 226//94 248//94
f 248//94 226//94 247//94
f 226//94 242//94 247//94
f 223//94 217//94 227//94
f 217//94 219//94 227//94
f 227//94 219//94 235//94
f 219//94 233//94 235//94
f 235//94 233//94 237//94
f 237//94 238//94 235//94
f 238//94 241//94 235//94
f 235//94 241//94 242//94
f 241//94 246//94 242//94
f 242//94 246//94 247//94
usemtl Material.002
f 273//1 265//1 251//1 271//1
f 279//1 270//1 255//1 277//1
f 263//1 276//1 274//1 249//1
f 268//1 282//1 280//1 257//1
usemtl Material.003
f 11//1 12//1 5//1
f 12//1 13//1 5//1
f 160//94 161//94 107//94
f 161//94 159//94 107//94
f 215//94 216//94 162//94
f 216//94 214//94 162//94
f 270//1 267//1 160//1 255//1
f 12//184 214//184 216//184
f 12//184 216//184 13//184
f 216//184 257//184 280//184 256//184 277//184 255//184 160//184 13//184
f 13//184 160//184 107//184
f 5//183 159//183 161//183
f 5//183 161//183 11//183
f 161//183 249//183 274//183 250//183 271//183 251//183 215//183 11//183
f 11//183 215//183 162//183
f 265//1 261//1 215//1 251//1
f 262//1 263//1 249//1 161//1
f 276//1 264//1 250//1 274//1
f 266//1 268//1 257//1 216//1
f 282//1 269//1 256//1 280//1
f 272//1 252//1 265//1 273//1
f 275//1 253//1 264//1 276//1
f 231//1 254//1 263//1 262//1
f 252//1 225//1 261//1 265//1
f 278//1 260//1 270//1 279//1
f 281//1 259//1 269//1 282//1
f 228//1 258//1 268//1 266//1
f 260//1 232//1 267//1 270//1
f 253//1 272//1 273//1 264//1
f 264//1 273//1 271//1 250//1
f 254//1 275//1 276//1 263//1
f 259//1 278//1 279//1 269//1
f 269//1 279//1 277//1 256//1
f 258//1 281//1 282//1 268//1
