# Blender 4.3.2
# www.blender.org
mtllib paddle-rotator.mtl
o paddle-rotator
v 0.000000 0.630453 -0.128298
v 0.001081 0.630453 -0.128357
v 0.000000 0.630453 -0.138298
v -0.003193 0.630453 -0.128822
v -0.002150 0.630453 -0.128532
v -0.001081 0.630453 -0.128357
v -0.006052 0.630453 -0.130337
v -0.005156 0.630453 -0.129730
v -0.004199 0.630453 -0.129222
v -0.008277 0.630453 -0.132686
v -0.007622 0.630453 -0.131824
v -0.006877 0.630453 -0.131038
v -0.009635 0.630453 -0.135623
v -0.009290 0.630453 -0.134597
v -0.008835 0.630453 -0.133614
v -0.009985 0.630453 -0.138840
v -0.009985 0.630453 -0.137757
v -0.009868 0.630453 -0.136680
v -0.009290 0.630453 -0.142000
v -0.009635 0.630453 -0.140973
v -0.009868 0.630453 -0.139916
v -0.007622 0.630453 -0.144772
v -0.008277 0.630453 -0.143910
v -0.008835 0.630453 -0.142982
v -0.005156 0.630453 -0.146867
v -0.006052 0.630453 -0.146259
v -0.006877 0.630453 -0.145558
v -0.002150 0.630453 -0.148064
v -0.003193 0.630453 -0.147775
v -0.004199 0.630453 -0.147374
v 0.001081 0.630453 -0.148240
v 0.000000 0.630453 -0.148298
v -0.001081 0.630453 -0.148240
v 0.004199 0.630453 -0.147374
v 0.003193 0.630453 -0.147775
v 0.002150 0.630453 -0.148064
v 0.006877 0.630453 -0.145558
v 0.006052 0.630453 -0.146259
v 0.005156 0.630453 -0.146867
v 0.008835 0.630453 -0.142982
v 0.008277 0.630453 -0.143910
v 0.007622 0.630453 -0.144772
v 0.009868 0.630453 -0.139916
v 0.009635 0.630453 -0.140973
v 0.009290 0.630453 -0.142000
v 0.009868 0.630453 -0.136680
v 0.009985 0.630453 -0.137757
v 0.009985 0.630453 -0.138840
v 0.008835 0.630453 -0.133614
v 0.009290 0.630453 -0.134597
v 0.009635 0.630453 -0.135623
v 0.006877 0.630453 -0.131038
v 0.007622 0.630453 -0.131824
v 0.008277 0.630453 -0.132686
v 0.004199 0.630453 -0.129222
v 0.005156 0.630453 -0.129730
v 0.006052 0.630453 -0.130337
v 0.002150 0.630453 -0.128532
v 0.003193 0.630453 -0.128822
v 0.000000 0.625453 -0.148298
v 0.001081 0.625453 -0.148240
v 0.002150 0.625453 -0.148064
v 0.003193 0.625453 -0.147775
v 0.004199 0.625453 -0.147374
v 0.005156 0.625453 -0.146867
v 0.006052 0.625453 -0.146259
v 0.006877 0.625453 -0.145558
v 0.007622 0.625453 -0.144772
v 0.008277 0.625453 -0.143910
v 0.008835 0.625453 -0.142982
v 0.009290 0.625453 -0.142000
v 0.009635 0.625453 -0.140973
v 0.009868 0.625453 -0.139916
v 0.009985 0.625453 -0.138840
v 0.009985 0.625453 -0.137757
v 0.009868 0.625453 -0.136680
v 0.009635 0.625453 -0.135623
v 0.009290 0.625453 -0.134597
v 0.008835 0.625453 -0.133614
v 0.008277 0.625453 -0.132686
v 0.007622 0.625453 -0.131824
v 0.006877 0.625453 -0.131038
v 0.006052 0.625453 -0.130337
v 0.005156 0.625453 -0.129730
v 0.004199 0.625453 -0.129222
v 0.003193 0.625453 -0.128822
v 0.002150 0.625453 -0.128532
v 0.001081 0.625453 -0.128357
v 0.000000 0.625453 -0.128298
v -0.001081 0.625453 -0.128357
v -0.002150 0.625453 -0.128532
v -0.003193 0.625453 -0.128822
v -0.004199 0.625453 -0.129222
v -0.005156 0.625453 -0.129730
v -0.006052 0.625453 -0.130337
v -0.006877 0.625453 -0.131038
v -0.007622 0.625453 -0.131824
v -0.008277 0.625453 -0.132686
v -0.008835 0.625453 -0.133614
v -0.009290 0.625453 -0.134597
v -0.009635 0.625453 -0.135623
v -0.009868 0.625453 -0.136680
v -0.009985 0.625453 -0.137757
v -0.009985 0.625453 -0.138840
v -0.009868 0.625453 -0.139916
v -0.009635 0.625453 -0.140973
v -0.009290 0.625453 -0.142000
v -0.008835 0.625453 -0.142982
v -0.008277 0.625453 -0.143910
v -0.007622 0.625453 -0.144772
v -0.006877 0.625453 -0.145558
v -0.006052 0.625453 -0.146259
v -0.005156 0.625453 -0.146867
v -0.004199 0.625453 -0.147374
v -0.003193 0.625453 -0.147775
v -0.002150 0.625453 -0.148064
v -0.001081 0.625453 -0.148240
v 0.000000 0.580453 -0.163298
v 0.001622 0.580365 -0.163298
v 0.000000 0.565453 -0.163298
v -0.004790 0.579668 -0.163298
v -0.003225 0.580103 -0.163298
v -0.001622 0.580365 -0.163298
v -0.009078 0.577395 -0.163298
v -0.007733 0.578306 -0.163298
v -0.006298 0.579067 -0.163298
v -0.012415 0.573871 -0.163298
v -0.011432 0.575164 -0.163298
v -0.010315 0.576343 -0.163298
v -0.014453 0.569466 -0.163298
v -0.013935 0.571005 -0.163298
v -0.013253 0.572479 -0.163298
v -0.014978 0.564641 -0.163298
v -0.014978 0.566265 -0.163298
v -0.014802 0.567880 -0.163298
v -0.013935 0.559901 -0.163298
v -0.014453 0.561440 -0.163298
v -0.014802 0.563027 -0.163298
v -0.011432 0.555743 -0.163298
v -0.012415 0.557036 -0.163298
v -0.013253 0.558427 -0.163298
v -0.007733 0.552600 -0.163298
v -0.009078 0.553512 -0.163298
v -0.010315 0.554563 -0.163298
v -0.003225 0.550804 -0.163298
v -0.004790 0.551238 -0.163298
v -0.006298 0.551840 -0.163298
v 0.001622 0.550541 -0.163298
v 0.000000 0.550453 -0.163298
v -0.001622 0.550541 -0.163298
v 0.006298 0.551840 -0.163298
v 0.004790 0.551238 -0.163298
v 0.003225 0.550804 -0.163298
v 0.010315 0.554563 -0.163298
v 0.009078 0.553512 -0.163298
v 0.007733 0.552600 -0.163298
v 0.013253 0.558427 -0.163298
v 0.012415 0.557036 -0.163298
v 0.011432 0.555743 -0.163298
v 0.014802 0.563027 -0.163298
v 0.014453 0.561440 -0.163298
v 0.013935 0.559901 -0.163298
v 0.014802 0.567880 -0.163298
v 0.014978 0.566265 -0.163298
v 0.014978 0.564641 -0.163298
v 0.013253 0.572479 -0.163298
v 0.013935 0.571005 -0.163298
v 0.014453 0.569466 -0.163298
v 0.010315 0.576343 -0.163298
v 0.011432 0.575164 -0.163298
v 0.012415 0.573871 -0.163298
v 0.006298 0.579067 -0.163298
v 0.007733 0.578306 -0.163298
v 0.009078 0.577395 -0.163298
v 0.003225 0.580103 -0.163298
v 0.004790 0.579668 -0.163298
v 0.000000 0.550453 -0.158298
v 0.001622 0.550541 -0.158298
v 0.003225 0.550804 -0.158298
v 0.004790 0.551238 -0.158298
v 0.006298 0.551840 -0.158298
v 0.007733 0.552600 -0.158298
v 0.009078 0.553512 -0.158298
v 0.010315 0.554563 -0.158298
v 0.011432 0.555743 -0.158298
v 0.012415 0.557036 -0.158298
v 0.013253 0.558427 -0.158298
v 0.013935 0.559901 -0.158298
v 0.014453 0.561440 -0.158298
v 0.014802 0.563027 -0.158298
v 0.014978 0.564641 -0.158298
v 0.014978 0.566265 -0.158298
v 0.014802 0.567880 -0.158298
v 0.014453 0.569466 -0.158298
v 0.013935 0.571005 -0.158298
v 0.013253 0.572479 -0.158298
v 0.012415 0.573871 -0.158298
v 0.011432 0.575164 -0.158298
v 0.010315 0.576343 -0.158298
v 0.009078 0.577395 -0.158298
v 0.007733 0.578306 -0.158298
v 0.006298 0.579067 -0.158298
v 0.004790 0.579668 -0.158298
v 0.003225 0.580103 -0.158298
v 0.001622 0.580365 -0.158298
v 0.000000 0.580453 -0.158298
v -0.001622 0.580365 -0.158298
v -0.003225 0.580103 -0.158298
v -0.004790 0.579668 -0.158298
v -0.006298 0.579067 -0.158298
v -0.007733 0.578306 -0.158298
v -0.009078 0.577395 -0.158298
v -0.010315 0.576343 -0.158298
v -0.011432 0.575164 -0.158298
v -0.012415 0.573871 -0.158298
v -0.013253 0.572479 -0.158298
v -0.013935 0.571005 -0.158298
v -0.014453 0.569466 -0.158298
v -0.014802 0.567880 -0.158298
v -0.014978 0.566265 -0.158298
v -0.014978 0.564641 -0.158298
v -0.014802 0.563027 -0.158298
v -0.014453 0.561440 -0.158298
v -0.013935 0.559901 -0.158298
v -0.013253 0.558427 -0.158298
v -0.012415 0.557036 -0.158298
v -0.011432 0.555743 -0.158298
v -0.010315 0.554563 -0.158298
v -0.009078 0.553512 -0.158298
v -0.007733 0.552600 -0.158298
v -0.006298 0.551840 -0.158298
v -0.004790 0.551238 -0.158298
v -0.003225 0.550804 -0.158298
v -0.001622 0.550541 -0.158298
v 0.020000 0.545453 -0.118298
v -0.020000 0.545453 -0.118298
v 0.020000 0.545453 -0.158298
v -0.020000 0.545453 -0.158298
v 0.020000 0.625453 -0.118298
v 0.020000 0.625453 -0.158298
v -0.020000 0.625453 -0.118298
v -0.020000 0.625453 -0.158298
vn -0.0000 1.0000 -0.0000
vn 0.0541 -0.0000 -0.9985
vn 0.1618 -0.0000 -0.9868
vn 0.2675 -0.0000 -0.9636
vn 0.3701 -0.0000 -0.9290
vn 0.4684 -0.0000 -0.8835
vn 0.5612 -0.0000 -0.8277
vn 0.6474 -0.0000 -0.7622
vn 0.7260 -0.0000 -0.6877
vn 0.7961 -0.0000 -0.6052
vn 0.8569 -0.0000 -0.5156
vn 0.9076 -0.0000 -0.4199
vn 0.9477 -0.0000 -0.3193
vn 0.9766 -0.0000 -0.2150
vn 0.9941 -0.0000 -0.1081
vn 1.0000 -0.0000 -0.0000
vn 0.9941 -0.0000 0.1081
vn 0.9766 -0.0000 0.2150
vn 0.9477 -0.0000 0.3193
vn 0.9076 -0.0000 0.4199
vn 0.8569 -0.0000 0.5156
vn 0.7961 -0.0000 0.6052
vn 0.7260 -0.0000 0.6877
vn 0.6474 -0.0000 0.7622
vn 0.5612 -0.0000 0.8277
vn 0.4684 -0.0000 0.8835
vn 0.3701 -0.0000 0.9290
vn 0.2675 -0.0000 0.9635
vn 0.1618 -0.0000 0.9868
vn 0.0541 -0.0000 0.9985
vn -0.0541 -0.0000 0.9985
vn -0.1618 -0.0000 0.9868
vn -0.2675 -0.0000 0.9635
vn -0.3701 -0.0000 0.9290
vn -0.4684 -0.0000 0.8835
vn -0.5612 -0.0000 0.8277
vn -0.6474 -0.0000 0.7622
vn -0.7260 -0.0000 0.6877
vn -0.7961 -0.0000 0.6052
vn -0.8569 -0.0000 0.5156
vn -0.9076 -0.0000 0.4199
vn -0.9477 -0.0000 0.3193
vn -0.9766 -0.0000 0.2150
vn -0.9941 -0.0000 0.1081
vn -1.0000 -0.0000 -0.0000
vn -0.9941 -0.0000 -0.1081
vn -0.9766 -0.0000 -0.2150
vn -0.9477 -0.0000 -0.3193
vn -0.9076 -0.0000 -0.4199
vn -0.8569 -0.0000 -0.5156
vn -0.7961 -0.0000 -0.6052
vn -0.7260 -0.0000 -0.6877
vn -0.6474 -0.0000 -0.7622
vn -0.5612 -0.0000 -0.8277
vn -0.4684 -0.0000 -0.8835
vn -0.3701 -0.0000 -0.9290
vn -0.2675 -0.0000 -0.9636
vn -0.1618 -0.0000 -0.9868
vn -0.0541 -0.0000 -0.9985
vn -0.0000 -0.0000 -1.0000
vn 0.0541 -0.9985 -0.0000
vn 0.1618 -0.9868 -0.0000
vn 0.2675 -0.9635 -0.0000
vn 0.2675 -0.9636 -0.0000
vn 0.3701 -0.9290 -0.0000
vn 0.4684 -0.8835 -0.0000
vn 0.5612 -0.8277 -0.0000
vn 0.6474 -0.7622 -0.0000
vn 0.7260 -0.6877 -0.0000
vn 0.7961 -0.6052 -0.0000
vn 0.8569 -0.5156 -0.0000
vn 0.9076 -0.4199 -0.0000
vn 0.9477 -0.3193 -0.0000
vn 0.9766 -0.2150 -0.0000
vn 0.9941 -0.1081 -0.0000
vn 0.9941 0.1081 -0.0000
vn 0.9766 0.2150 -0.0000
vn 0.9477 0.3193 -0.0000
vn 0.9076 0.4199 -0.0000
vn 0.8569 0.5156 -0.0000
vn 0.7961 0.6052 -0.0000
vn 0.7260 0.6877 -0.0000
vn 0.6474 0.7622 -0.0000
vn 0.5612 0.8277 -0.0000
vn 0.4684 0.8835 -0.0000
vn 0.3701 0.9290 -0.0000
vn 0.2675 0.9636 -0.0000
vn 0.2675 0.9635 -0.0000
vn 0.1618 0.9868 -0.0000
vn 0.0541 0.9985 -0.0000
vn -0.0541 0.9985 -0.0000
vn -0.1618 0.9868 -0.0000
vn -0.2675 0.9635 -0.0000
vn -0.2675 0.9636 -0.0000
vn -0.3701 0.9290 -0.0000
vn -0.4684 0.8835 -0.0000
vn -0.5612 0.8277 -0.0000
vn -0.6474 0.7622 -0.0000
vn -0.7260 0.6877 -0.0000
vn -0.7961 0.6052 -0.0000
vn -0.8569 0.5156 -0.0000
vn -0.9076 0.4199 -0.0000
vn -0.9477 0.3193 -0.0000
vn -0.9766 0.2150 -0.0000
vn -0.9941 0.1081 -0.0000
vn -0.9941 -0.1081 -0.0000
vn -0.9766 -0.2150 -0.0000
vn -0.9477 -0.3193 -0.0000
vn -0.9076 -0.4199 -0.0000
vn -0.8569 -0.5156 -0.0000
vn -0.7961 -0.6052 -0.0000
vn -0.7260 -0.6877 -0.0000
vn -0.6474 -0.7622 -0.0000
vn -0.5612 -0.8277 -0.0000
vn -0.4684 -0.8835 -0.0000
vn -0.3701 -0.9290 -0.0000
vn -0.2675 -0.9636 -0.0000
vn -0.2675 -0.9635 -0.0000
vn -0.1618 -0.9868 -0.0000
vn -0.0541 -0.9985 -0.0000
vn -0.0000 -1.0000 -0.0000
vn -0.0000 -0.0000 1.0000
s 0
usemtl Base_Material
f 235//121 236//121 237//121
f 236//121 238//121 237//121
f 239//16 235//16 240//16
f 235//16 237//16 240//16
f 236//45 241//45 238//45
f 241//45 242//45 238//45
f 61//1 62//1 240//1
f 62//1 63//1 240//1
f 87//1 88//1 239//1
f 88//1 89//1 239//1
f 239//1 89//1 241//1
f 89//1 90//1 241//1
f 90//1 91//1 241//1
f 241//1 91//1 92//1
f 108//1 109//1 242//1
f 109//1 110//1 242//1
f 242//1 110//1 111//1
f 242//1 117//1 240//1
f 117//1 60//1 240//1
f 240//1 60//1 61//1
f 111//1 112//1 242//1
f 112//1 113//1 242//1
f 242//1 113//1 114//1
f 114//1 115//1 242//1
f 115//1 116//1 242//1
f 242//1 116//1 117//1
f 92//1 93//1 241//1
f 93//1 94//1 241//1
f 241//1 94//1 95//1
f 95//1 96//1 241//1
f 96//1 97//1 241//1
f 241//1 97//1 98//1
f 98//1 99//1 241//1
f 99//1 100//1 241//1
f 241//1 100//1 101//1
f 101//1 102//1 241//1
f 102//1 103//1 241//1
f 241//1 103//1 242//1
f 103//1 104//1 242//1
f 242//1 104//1 105//1
f 105//1 106//1 242//1
f 106//1 107//1 242//1
f 242//1 107//1 108//1
f 78//1 239//1 77//1
f 239//1 76//1 77//1
f 66//1 67//1 240//1
f 67//1 68//1 240//1
f 240//1 68//1 69//1
f 63//1 64//1 240//1
f 64//1 65//1 240//1
f 240//1 65//1 66//1
f 69//1 70//1 240//1
f 70//1 71//1 240//1
f 240//1 71//1 72//1
f 78//1 79//1 239//1
f 79//1 80//1 239//1
f 239//1 80//1 81//1
f 81//1 82//1 239//1
f 82//1 83//1 239//1
f 239//1 83//1 84//1
f 84//1 85//1 239//1
f 85//1 86//1 239//1
f 239//1 86//1 87//1
f 72//1 73//1 240//1
f 73//1 74//1 240//1
f 240//1 74//1 239//1
f 74//1 75//1 239//1
f 239//1 75//1 76//1
f 241//122 236//122 239//122
f 236//122 235//122 239//122
f 205//60 206//60 240//60
f 183//60 184//60 237//60
f 208//60 209//60 242//60
f 209//60 210//60 242//60
f 242//60 210//60 211//60
f 229//60 230//60 238//60
f 195//60 196//60 240//60
f 240//60 206//60 242//60
f 206//60 207//60 242//60
f 242//60 207//60 208//60
f 211//60 212//60 242//60
f 212//60 213//60 242//60
f 242//60 213//60 214//60
f 242//60 217//60 218//60
f 184//60 185//60 237//60
f 185//60 186//60 237//60
f 237//60 186//60 187//60
f 187//60 188//60 237//60
f 188//60 189//60 237//60
f 237//60 189//60 190//60
f 195//60 240//60 194//60
f 214//60 215//60 242//60
f 215//60 216//60 242//60
f 242//60 216//60 217//60
f 225//60 226//60 238//60
f 218//60 219//60 242//60
f 219//60 220//60 242//60
f 242//60 220//60 238//60
f 220//60 221//60 238//60
f 238//60 221//60 222//60
f 226//60 227//60 238//60
f 227//60 228//60 238//60
f 238//60 228//60 229//60
f 230//60 231//60 238//60
f 231//60 232//60 238//60
f 238//60 232//60 233//60
f 233//60 234//60 238//60
f 234//60 177//60 238//60
f 238//60 177//60 237//60
f 196//60 197//60 240//60
f 197//60 198//60 240//60
f 240//60 198//60 199//60
f 199//60 200//60 240//60
f 200//60 201//60 240//60
f 240//60 201//60 202//60
f 177//60 178//60 237//60
f 178//60 179//60 237//60
f 237//60 179//60 180//60
f 190//60 191//60 237//60
f 191//60 192//60 237//60
f 237//60 192//60 240//60
f 192//60 193//60 240//60
f 240//60 193//60 194//60
f 202//60 203//60 240//60
f 203//60 204//60 240//60
f 240//60 204//60 205//60
f 222//60 223//60 238//60
f 223//60 224//60 238//60
f 238//60 224//60 225//60
f 180//60 181//60 237//60
f 181//60 182//60 237//60
f 237//60 182//60 183//60
usemtl Metalic
f 1//1 2//1 3//1
f 4//1 5//1 3//1
f 5//1 6//1 3//1
f 3//1 6//1 1//1
f 7//1 8//1 3//1
f 8//1 9//1 3//1
f 3//1 9//1 4//1
f 10//1 11//1 3//1
f 11//1 12//1 3//1
f 3//1 12//1 7//1
f 13//1 14//1 3//1
f 14//1 15//1 3//1
f 3//1 15//1 10//1
f 16//1 17//1 3//1
f 17//1 18//1 3//1
f 3//1 18//1 13//1
f 19//1 20//1 3//1
f 20//1 21//1 3//1
f 3//1 21//1 16//1
f 22//1 23//1 3//1
f 23//1 24//1 3//1
f 3//1 24//1 19//1
f 25//1 26//1 3//1
f 26//1 27//1 3//1
f 3//1 27//1 22//1
f 28//1 29//1 3//1
f 29//1 30//1 3//1
f 3//1 30//1 25//1
f 31//1 32//1 3//1
f 32//1 33//1 3//1
f 3//1 33//1 28//1
f 34//1 35//1 3//1
f 35//1 36//1 3//1
f 3//1 36//1 31//1
f 37//1 38//1 3//1
f 38//1 39//1 3//1
f 3//1 39//1 34//1
f 40//1 41//1 3//1
f 41//1 42//1 3//1
f 3//1 42//1 37//1
f 43//1 44//1 3//1
f 44//1 45//1 3//1
f 3//1 45//1 40//1
f 46//1 47//1 3//1
f 47//1 48//1 3//1
f 3//1 48//1 43//1
f 49//1 50//1 3//1
f 50//1 51//1 3//1
f 3//1 51//1 46//1
f 52//1 53//1 3//1
f 53//1 54//1 3//1
f 3//1 54//1 49//1
f 55//1 56//1 3//1
f 56//1 57//1 3//1
f 3//1 57//1 52//1
f 2//1 58//1 3//1
f 58//1 59//1 3//1
f 3//1 59//1 55//1
f 60//2 31//2 61//2
f 31//3 36//3 61//3
f 61//3 36//3 62//3
f 36//4 35//4 62//4
f 62//4 35//4 63//4
f 35//5 34//5 63//5
f 63//5 34//5 64//5
f 34//6 39//6 64//6
f 64//6 39//6 65//6
f 39//7 38//7 65//7
f 65//7 38//7 66//7
f 38//8 37//8 66//8
f 66//8 37//8 67//8
f 37//9 42//9 67//9
f 67//9 42//9 68//9
f 42//10 41//10 68//10
f 68//10 41//10 69//10
f 41//11 40//11 69//11
f 69//11 40//11 70//11
f 40//12 45//12 70//12
f 70//12 45//12 71//12
f 45//13 44//13 71//13
f 71//13 44//13 72//13
f 44//14 43//14 72//14
f 72//14 43//14 73//14
f 43//15 48//15 73//15
f 73//15 48//15 74//15
f 48//16 47//16 74//16
f 74//16 47//16 75//16
f 47//17 46//17 75//17
f 75//17 46//17 76//17
f 46//18 51//18 76//18
f 76//18 51//18 77//18
f 51//19 50//19 77//19
f 77//19 50//19 78//19
f 50//20 49//20 78//20
f 78//20 49//20 79//20
f 49//21 54//21 79//21
f 79//21 54//21 80//21
f 54//22 53//22 80//22
f 80//22 53//22 81//22
f 53//23 52//23 81//23
f 81//23 52//23 82//23
f 52//24 57//24 82//24
f 82//24 57//24 83//24
f 57//25 56//25 83//25
f 83//25 56//25 84//25
f 56//26 55//26 84//26
f 84//26 55//26 85//26
f 55//27 59//27 85//27
f 85//27 59//27 86//27
f 59//28 58//28 86//28
f 86//28 58//28 87//28
f 58//29 2//29 87//29
f 87//29 2//29 88//29
f 2//30 1//30 88//30
f 88//30 1//30 89//30
f 1//31 6//31 89//31
f 89//31 6//31 90//31
f 6//32 5//32 90//32
f 90//32 5//32 91//32
f 5//33 4//33 91//33
f 91//33 4//33 92//33
f 4//34 9//34 92//34
f 92//34 9//34 93//34
f 9//35 8//35 93//35
f 93//35 8//35 94//35
f 8//36 7//36 94//36
f 94//36 7//36 95//36
f 7//37 12//37 95//37
f 95//37 12//37 96//37
f 12//38 11//38 96//38
f 96//38 11//38 97//38
f 11//39 10//39 97//39
f 97//39 10//39 98//39
f 10//40 15//40 98//40
f 98//40 15//40 99//40
f 15//41 14//41 99//41
f 99//41 14//41 100//41
f 14//42 13//42 100//42
f 100//42 13//42 101//42
f 13//43 18//43 101//43
f 101//43 18//43 102//43
f 18//44 17//44 102//44
f 102//44 17//44 103//44
f 17//45 16//45 103//45
f 103//45 16//45 104//45
f 16//46 21//46 104//46
f 104//46 21//46 105//46
f 21//47 20//47 105//47
f 105//47 20//47 106//47
f 20//48 19//48 106//48
f 106//48 19//48 107//48
f 19//49 24//49 107//49
f 107//49 24//49 108//49
f 24//50 23//50 108//50
f 108//50 23//50 109//50
f 23//51 22//51 109//51
f 109//51 22//51 110//51
f 22//52 27//52 110//52
f 110//52 27//52 111//52
f 27//53 26//53 111//53
f 111//53 26//53 112//53
f 26//54 25//54 112//54
f 112//54 25//54 113//54
f 25//55 30//55 113//55
f 113//55 30//55 114//55
f 30//56 29//56 114//56
f 114//56 29//56 115//56
f 29//57 28//57 115//57
f 115//57 28//57 116//57
f 28//58 33//58 116//58
f 116//58 33//58 117//58
f 33//59 32//59 117//59
f 117//59 32//59 60//59
f 32//2 31//2 60//2
f 118//60 119//60 120//60
f 121//60 122//60 120//60
f 122//60 123//60 120//60
f 120//60 123//60 118//60
f 124//60 125//60 120//60
f 125//60 126//60 120//60
f 120//60 126//60 121//60
f 127//60 128//60 120//60
f 128//60 129//60 120//60
f 120//60 129//60 124//60
f 130//60 131//60 120//60
f 131//60 132//60 120//60
f 120//60 132//60 127//60
f 133//60 134//60 120//60
f 134//60 135//60 120//60
f 120//60 135//60 130//60
f 136//60 137//60 120//60
f 137//60 138//60 120//60
f 120//60 138//60 133//60
f 139//60 140//60 120//60
f 140//60 141//60 120//60
f 120//60 141//60 136//60
f 142//60 143//60 120//60
f 143//60 144//60 120//60
f 120//60 144//60 139//60
f 145//60 146//60 120//60
f 146//60 147//60 120//60
f 120//60 147//60 142//60
f 148//60 149//60 120//60
f 149//60 150//60 120//60
f 120//60 150//60 145//60
f 151//60 152//60 120//60
f 152//60 153//60 120//60
f 120//60 153//60 148//60
f 154//60 155//60 120//60
f 155//60 156//60 120//60
f 120//60 156//60 151//60
f 157//60 158//60 120//60
f 158//60 159//60 120//60
f 120//60 159//60 154//60
f 160//60 161//60 120//60
f 161//60 162//60 120//60
f 120//60 162//60 157//60
f 163//60 164//60 120//60
f 164//60 165//60 120//60
f 120//60 165//60 160//60
f 166//60 167//60 120//60
f 167//60 168//60 120//60
f 120//60 168//60 163//60
f 169//60 170//60 120//60
f 170//60 171//60 120//60
f 120//60 171//60 166//60
f 172//60 173//60 120//60
f 173//60 174//60 120//60
f 120//60 174//60 169//60
f 119//60 175//60 120//60
f 175//60 176//60 120//60
f 120//60 176//60 172//60
f 177//61 148//61 178//61
f 148//62 153//62 178//62
f 178//62 153//62 179//62
f 153//63 152//63 179//63
f 179//64 152//64 180//64
f 152//65 151//65 180//65
f 180//65 151//65 181//65
f 151//66 156//66 181//66
f 181//66 156//66 182//66
f 156//67 155//67 182//67
f 182//67 155//67 183//67
f 155//68 154//68 183//68
f 183//68 154//68 184//68
f 154//69 159//69 184//69
f 184//69 159//69 185//69
f 159//70 158//70 185//70
f 185//70 158//70 186//70
f 158//71 157//71 186//71
f 186//71 157//71 187//71
f 157//72 162//72 187//72
f 187//72 162//72 188//72
f 162//73 161//73 188//73
f 188//73 161//73 189//73
f 161//74 160//74 189//74
f 189//74 160//74 190//74
f 160//75 165//75 190//75
f 190//75 165//75 191//75
f 165//16 164//16 191//16
f 191//16 164//16 192//16
f 164//76 163//76 192//76
f 192//76 163//76 193//76
f 163//77 168//77 193//77
f 193//77 168//77 194//77
f 168//78 167//78 194//78
f 194//78 167//78 195//78
f 167//79 166//79 195//79
f 195//79 166//79 196//79
f 166//80 171//80 196//80
f 196//80 171//80 197//80
f 171//81 170//81 197//81
f 197//81 170//81 198//81
f 170//82 169//82 198//82
f 198//82 169//82 199//82
f 169//83 174//83 199//83
f 199//83 174//83 200//83
f 174//84 173//84 200//84
f 200//84 173//84 201//84
f 173//85 172//85 201//85
f 201//85 172//85 202//85
f 172//86 176//86 202//86
f 202//86 176//86 203//86
f 176//87 175//87 203//87
f 203//88 175//88 204//88
f 175//89 119//89 204//89
f 204//89 119//89 205//89
f 119//90 118//90 205//90
f 205//90 118//90 206//90
f 118//91 123//91 206//91
f 206//91 123//91 207//91
f 123//92 122//92 207//92
f 207//92 122//92 208//92
f 122//93 121//93 208//93
f 208//94 121//94 209//94
f 121//95 126//95 209//95
f 209//95 126//95 210//95
f 126//96 125//96 210//96
f 210//96 125//96 211//96
f 125//97 124//97 211//97
f 211//97 124//97 212//97
f 124//98 129//98 212//98
f 212//98 129//98 213//98
f 129//99 128//99 213//99
f 213//99 128//99 214//99
f 128//100 127//100 214//100
f 214//100 127//100 215//100
f 127//101 132//101 215//101
f 215//101 132//101 216//101
f 132//102 131//102 216//102
f 216//102 131//102 217//102
f 131//103 130//103 217//103
f 217//103 130//103 218//103
f 130//104 135//104 218//104
f 218//104 135//104 219//104
f 135//105 134//105 219//105
f 219//105 134//105 220//105
f 134//45 133//45 220//45
f 220//45 133//45 221//45
f 133//106 138//106 221//106
f 221//106 138//106 222//106
f 138//107 137//107 222//107
f 222//107 137//107 223//107
f 137//108 136//108 223//108
f 223//108 136//108 224//108
f 136//109 141//109 224//109
f 224//109 141//109 225//109
f 141//110 140//110 225//110
f 225//110 140//110 226//110
f 140//111 139//111 226//111
f 226//111 139//111 227//111
f 139//112 144//112 227//112
f 227//112 144//112 228//112
f 144//113 143//113 228//113
f 228//113 143//113 229//113
f 143//114 142//114 229//114
f 229//114 142//114 230//114
f 142//115 147//115 230//115
f 230//115 147//115 231//115
f 147//116 146//116 231//116
f 231//116 146//116 232//116
f 146//117 145//117 232//117
f 232//118 145//118 233//118
f 145//119 150//119 233//119
f 233//119 150//119 234//119
f 150//120 149//120 234//120
f 234//120 149//120 177//120
f 149//61 148//61 177//61
