# Blender 4.3.2
# www.blender.org
mtllib rotator.mtl
o rotator.001
v 0.000000 0.489085 0.007049
v 0.004325 0.488851 0.007049
v -0.000000 0.449085 0.007049
v -0.012772 0.486991 0.007049
v -0.008599 0.488150 0.007049
v -0.004325 0.488851 0.007049
v -0.024207 0.480929 0.007049
v -0.020622 0.483359 0.007049
v -0.016796 0.485388 0.007049
v -0.033108 0.471533 0.007049
v -0.030486 0.474981 0.007049
v -0.027508 0.478125 0.007049
v -0.038542 0.459786 0.007049
v -0.037159 0.463891 0.007049
v -0.035340 0.467822 0.007049
v -0.039941 0.446920 0.007049
v -0.039941 0.451251 0.007049
v -0.039473 0.455556 0.007049
v -0.037159 0.434280 0.007049
v -0.038542 0.438384 0.007049
v -0.039473 0.442614 0.007049
v -0.030486 0.423190 0.007049
v -0.033108 0.426638 0.007049
v -0.035340 0.430349 0.007049
v -0.020622 0.414811 0.007049
v -0.024207 0.417241 0.007049
v -0.027508 0.420045 0.007049
v -0.008599 0.410020 0.007049
v -0.012772 0.411179 0.007049
v -0.016796 0.412782 0.007049
v 0.004325 0.409320 0.007049
v -0.000000 0.409085 0.007049
v -0.004325 0.409320 0.007049
v 0.016796 0.412782 0.007049
v 0.012772 0.411179 0.007049
v 0.008599 0.410020 0.007049
v 0.027508 0.420045 0.007049
v 0.024207 0.417241 0.007049
v 0.020622 0.414811 0.007049
v 0.035340 0.430349 0.007049
v 0.033108 0.426638 0.007049
v 0.030486 0.423190 0.007049
v 0.039473 0.442614 0.007049
v 0.038542 0.438384 0.007049
v 0.037159 0.434280 0.007049
v 0.039473 0.455556 0.007049
v 0.039941 0.451251 0.007049
v 0.039941 0.446920 0.007049
v 0.035340 0.467822 0.007049
v 0.037159 0.463891 0.007049
v 0.038542 0.459786 0.007049
v 0.027508 0.478125 0.007049
v 0.030486 0.474981 0.007049
v 0.033108 0.471533 0.007049
v 0.016796 0.485388 0.007049
v 0.020622 0.483359 0.007049
v 0.024207 0.480929 0.007049
v 0.008599 0.488150 0.007049
v 0.012772 0.486991 0.007049
v -0.000000 0.409085 0.012049
v 0.004325 0.409320 0.012049
v 0.008599 0.410020 0.012049
v 0.012772 0.411179 0.012049
v 0.016796 0.412782 0.012049
v 0.020622 0.414811 0.012049
v 0.024207 0.417241 0.012049
v 0.027508 0.420045 0.012049
v 0.030486 0.423190 0.012049
v 0.033108 0.426638 0.012049
v 0.035340 0.430349 0.012049
v 0.037159 0.434280 0.012049
v 0.038542 0.438384 0.012049
v 0.039473 0.442614 0.012049
v 0.039941 0.446920 0.012049
v 0.039941 0.451251 0.012049
v 0.039473 0.455556 0.012049
v 0.038542 0.459786 0.012049
v 0.037159 0.463891 0.012049
v 0.035340 0.467822 0.012049
v 0.033108 0.471533 0.012049
v 0.030486 0.474981 0.012049
v 0.027508 0.478125 0.012049
v 0.024207 0.480929 0.012049
v 0.020622 0.483359 0.012049
v 0.016796 0.485388 0.012049
v 0.012772 0.486991 0.012049
v 0.008599 0.488150 0.012049
v 0.004325 0.488851 0.012049
v 0.000000 0.489085 0.012049
v -0.004325 0.488851 0.012049
v -0.008599 0.488150 0.012049
v -0.012772 0.486991 0.012049
v -0.016796 0.485388 0.012049
v -0.020622 0.483359 0.012049
v -0.024207 0.480929 0.012049
v -0.027508 0.478125 0.012049
v -0.030486 0.474981 0.012049
v -0.033108 0.471533 0.012049
v -0.035340 0.467822 0.012049
v -0.037159 0.463891 0.012049
v -0.038542 0.459786 0.012049
v -0.039473 0.455556 0.012049
v -0.039941 0.451251 0.012049
v -0.039941 0.446920 0.012049
v -0.039473 0.442614 0.012049
v -0.038542 0.438384 0.012049
v -0.037159 0.434280 0.012049
v -0.035340 0.430349 0.012049
v -0.033108 0.426638 0.012049
v -0.030486 0.423190 0.012049
v -0.027508 0.420045 0.012049
v -0.024207 0.417241 0.012049
v -0.020622 0.414811 0.012049
v -0.016796 0.412782 0.012049
v -0.012772 0.411179 0.012049
v -0.008599 0.410020 0.012049
v -0.004325 0.409320 0.012049
v 0.000000 0.394085 0.022049
v 0.004325 0.394085 0.022283
v 0.000000 0.394085 0.062049
v -0.012772 0.394085 0.024143
v -0.008599 0.394085 0.022984
v -0.004325 0.394085 0.022283
v -0.024207 0.394085 0.030205
v -0.020622 0.394085 0.027775
v -0.016796 0.394085 0.025746
v -0.033108 0.394085 0.039602
v -0.030486 0.394085 0.036154
v -0.027508 0.394085 0.033009
v -0.038542 0.394085 0.051348
v -0.037159 0.394085 0.047243
v -0.035340 0.394085 0.043313
v -0.039941 0.394085 0.064215
v -0.039941 0.394085 0.059883
v -0.039473 0.394085 0.055578
v -0.037159 0.394085 0.076855
v -0.038542 0.394085 0.072750
v -0.039473 0.394085 0.068520
v -0.030486 0.394085 0.087944
v -0.033108 0.394085 0.084496
v -0.035340 0.394085 0.080785
v -0.020622 0.394085 0.096323
v -0.024207 0.394085 0.093893
v -0.027508 0.394085 0.091089
v -0.008599 0.394085 0.101114
v -0.012772 0.394085 0.099955
v -0.016796 0.394085 0.098352
v 0.004325 0.394085 0.101815
v 0.000000 0.394085 0.102049
v -0.004325 0.394085 0.101815
v 0.016796 0.394085 0.098352
v 0.012772 0.394085 0.099955
v 0.008599 0.394085 0.101114
v 0.027508 0.394085 0.091089
v 0.024207 0.394085 0.093893
v 0.020622 0.394085 0.096323
v 0.035340 0.394085 0.080785
v 0.033108 0.394085 0.084496
v 0.030486 0.394085 0.087944
v 0.039473 0.394085 0.068520
v 0.038542 0.394085 0.072750
v 0.037159 0.394085 0.076855
v 0.039473 0.394085 0.055578
v 0.039941 0.394085 0.059883
v 0.039941 0.394085 0.064215
v 0.035340 0.394085 0.043313
v 0.037159 0.394085 0.047243
v 0.038542 0.394085 0.051348
v 0.027508 0.394085 0.033009
v 0.030486 0.394085 0.036154
v 0.033108 0.394085 0.039602
v 0.016796 0.394085 0.025746
v 0.020622 0.394085 0.027775
v 0.024207 0.394085 0.030205
v 0.008599 0.394085 0.022984
v 0.012772 0.394085 0.024143
v 0.000000 0.399085 0.102049
v 0.004325 0.399085 0.101815
v 0.008599 0.399085 0.101114
v 0.012772 0.399085 0.099955
v 0.016796 0.399085 0.098352
v 0.020622 0.399085 0.096323
v 0.024207 0.399085 0.093893
v 0.027508 0.399085 0.091089
v 0.030486 0.399085 0.087944
v 0.033108 0.399085 0.084496
v 0.035340 0.399085 0.080785
v 0.037159 0.399085 0.076855
v 0.038542 0.399085 0.072750
v 0.039473 0.399085 0.068520
v 0.039941 0.399085 0.064215
v 0.039941 0.399085 0.059883
v 0.039473 0.399085 0.055578
v 0.038542 0.399085 0.051348
v 0.037159 0.399085 0.047243
v 0.035340 0.399085 0.043313
v 0.033108 0.399085 0.039602
v 0.030486 0.399085 0.036154
v 0.027508 0.399085 0.033009
v 0.024207 0.399085 0.030205
v 0.020622 0.399085 0.027775
v 0.016796 0.399085 0.025746
v 0.012772 0.399085 0.024143
v 0.008599 0.399085 0.022984
v 0.004325 0.399085 0.022283
v 0.000000 0.399085 0.022049
v -0.004325 0.399085 0.022283
v -0.008599 0.399085 0.022984
v -0.012772 0.399085 0.024143
v -0.016796 0.399085 0.025746
v -0.020622 0.399085 0.027775
v -0.024207 0.399085 0.030205
v -0.027508 0.399085 0.033009
v -0.030486 0.399085 0.036154
v -0.033108 0.399085 0.039602
v -0.035340 0.399085 0.043313
v -0.037159 0.399085 0.047243
v -0.038542 0.399085 0.051348
v -0.039473 0.399085 0.055578
v -0.039941 0.399085 0.059883
v -0.039941 0.399085 0.064215
v -0.039473 0.399085 0.068520
v -0.038542 0.399085 0.072750
v -0.037159 0.399085 0.076855
v -0.035340 0.399085 0.080785
v -0.033108 0.399085 0.084496
v -0.030486 0.399085 0.087944
v -0.027508 0.399085 0.091089
v -0.024207 0.399085 0.093893
v -0.020622 0.399085 0.096323
v -0.016796 0.399085 0.098352
v -0.012772 0.399085 0.099955
v -0.008599 0.399085 0.101114
v -0.004325 0.399085 0.101815
v 0.050000 0.499085 0.012049
v 0.050000 0.499085 0.032049
v 0.050000 0.399085 0.012049
v 0.050000 0.419085 0.112049
v 0.050000 0.399085 0.112049
v -0.050000 0.499085 0.012049
v -0.050000 0.399085 0.012049
v -0.050000 0.419085 0.112049
v -0.050000 0.399085 0.112049
v -0.050000 0.499085 0.032049
vn -0.0000 -0.0000 -1.0000
vn 0.0541 -0.9985 -0.0000
vn 0.1618 -0.9868 -0.0000
vn 0.2675 -0.9636 -0.0000
vn 0.3701 -0.9290 -0.0000
vn 0.4684 -0.8835 -0.0000
vn 0.5612 -0.8277 -0.0000
vn 0.6474 -0.7622 -0.0000
vn 0.7260 -0.6877 -0.0000
vn 0.7961 -0.6052 -0.0000
vn 0.8569 -0.5156 -0.0000
vn 0.9076 -0.4199 -0.0000
vn 0.9477 -0.3193 -0.0000
vn 0.9766 -0.2150 -0.0000
vn 0.9941 -0.1081 -0.0000
vn 1.0000 -0.0000 -0.0000
vn 0.9941 0.1081 -0.0000
vn 0.9766 0.2150 -0.0000
vn 0.9477 0.3193 -0.0000
vn 0.9076 0.4199 -0.0000
vn 0.8569 0.5156 -0.0000
vn 0.7961 0.6052 -0.0000
vn 0.7260 0.6877 -0.0000
vn 0.6474 0.7622 -0.0000
vn 0.5612 0.8277 -0.0000
vn 0.4684 0.8835 -0.0000
vn 0.3701 0.9290 -0.0000
vn 0.2675 0.9636 -0.0000
vn 0.1618 0.9868 -0.0000
vn 0.0541 0.9985 -0.0000
vn -0.0541 0.9985 -0.0000
vn -0.1618 0.9868 -0.0000
vn -0.2675 0.9636 -0.0000
vn -0.3701 0.9290 -0.0000
vn -0.4684 0.8835 -0.0000
vn -0.5612 0.8277 -0.0000
vn -0.6474 0.7622 -0.0000
vn -0.7260 0.6877 -0.0000
vn -0.7961 0.6052 -0.0000
vn -0.8569 0.5156 -0.0000
vn -0.9076 0.4199 -0.0000
vn -0.9477 0.3193 -0.0000
vn -0.9766 0.2150 -0.0000
vn -0.9941 0.1081 -0.0000
vn -1.0000 -0.0000 -0.0000
vn -0.9941 -0.1081 -0.0000
vn -0.9766 -0.2150 -0.0000
vn -0.9477 -0.3193 -0.0000
vn -0.9076 -0.4199 -0.0000
vn -0.8569 -0.5156 -0.0000
vn -0.7961 -0.6052 -0.0000
vn -0.7260 -0.6877 -0.0000
vn -0.6474 -0.7622 -0.0000
vn -0.5612 -0.8277 -0.0000
vn -0.4684 -0.8835 -0.0000
vn -0.3701 -0.9290 -0.0000
vn -0.2675 -0.9636 -0.0000
vn -0.1618 -0.9868 -0.0000
vn -0.0541 -0.9985 -0.0000
vn -0.0000 -1.0000 -0.0000
vn 0.0541 -0.0000 0.9985
vn 0.1618 -0.0000 0.9868
vn 0.2675 -0.0000 0.9636
vn 0.3701 -0.0000 0.9290
vn 0.4684 -0.0000 0.8835
vn 0.5612 -0.0000 0.8277
vn 0.6474 -0.0000 0.7622
vn 0.7260 -0.0000 0.6877
vn 0.7961 -0.0000 0.6052
vn 0.8569 -0.0000 0.5156
vn 0.9076 -0.0000 0.4199
vn 0.9477 -0.0000 0.3193
vn 0.9766 -0.0000 0.2150
vn 0.9941 -0.0000 0.1081
vn 0.9941 -0.0000 -0.1081
vn 0.9766 -0.0000 -0.2150
vn 0.9477 -0.0000 -0.3193
vn 0.9076 -0.0000 -0.4199
vn 0.8569 -0.0000 -0.5156
vn 0.7961 -0.0000 -0.6052
vn 0.7260 -0.0000 -0.6877
vn 0.6474 -0.0000 -0.7622
vn 0.5612 -0.0000 -0.8277
vn 0.4684 -0.0000 -0.8835
vn 0.3701 -0.0000 -0.9290
vn 0.2675 -0.0000 -0.9636
vn 0.1618 -0.0000 -0.9868
vn 0.0541 -0.0000 -0.9985
vn -0.0541 -0.0000 -0.9985
vn -0.1618 -0.0000 -0.9868
vn -0.2675 -0.0000 -0.9636
vn -0.3701 -0.0000 -0.9290
vn -0.4684 -0.0000 -0.8835
vn -0.5612 -0.0000 -0.8277
vn -0.6474 -0.0000 -0.7622
vn -0.7260 -0.0000 -0.6877
vn -0.7961 -0.0000 -0.6052
vn -0.8569 -0.0000 -0.5156
vn -0.9076 -0.0000 -0.4199
vn -0.9477 -0.0000 -0.3193
vn -0.9766 -0.0000 -0.2150
vn -0.9941 -0.0000 -0.1081
vn -0.9941 -0.0000 0.1081
vn -0.9766 -0.0000 0.2150
vn -0.9477 -0.0000 0.3193
vn -0.9076 -0.0000 0.4199
vn -0.8569 -0.0000 0.5156
vn -0.7961 -0.0000 0.6052
vn -0.7260 -0.0000 0.6877
vn -0.6474 -0.0000 0.7622
vn -0.5612 -0.0000 0.8277
vn -0.4684 -0.0000 0.8835
vn -0.3701 -0.0000 0.9290
vn -0.2675 -0.0000 0.9636
vn -0.1618 -0.0000 0.9868
vn -0.0541 -0.0000 0.9985
vn -0.0000 -0.0000 1.0000
vn -0.0000 1.0000 -0.0000
vn -0.0000 0.7071 0.7071
s 0
usemtl Base_Material
f 235//16 236//16 237//16
f 236//16 238//16 237//16
f 237//16 238//16 239//16
f 91//1 92//1 240//1
f 70//1 71//1 237//1
f 78//1 235//1 77//1
f 235//1 76//1 77//1
f 78//1 79//1 235//1
f 79//1 80//1 235//1
f 235//1 80//1 81//1
f 84//1 85//1 235//1
f 85//1 86//1 235//1
f 235//1 86//1 87//1
f 95//1 96//1 240//1
f 96//1 97//1 240//1
f 240//1 97//1 98//1
f 237//1 74//1 235//1
f 74//1 75//1 235//1
f 235//1 75//1 76//1
f 81//1 82//1 235//1
f 82//1 83//1 235//1
f 235//1 83//1 84//1
f 87//1 88//1 235//1
f 88//1 89//1 235//1
f 235//1 89//1 240//1
f 89//1 90//1 240//1
f 240//1 90//1 91//1
f 92//1 93//1 240//1
f 93//1 94//1 240//1
f 240//1 94//1 95//1
f 71//1 72//1 237//1
f 72//1 73//1 237//1
f 237//1 73//1 74//1
f 98//1 99//1 240//1
f 99//1 100//1 240//1
f 240//1 100//1 101//1
f 104//1 241//1 103//1
f 241//1 240//1 103//1
f 103//1 240//1 102//1
f 240//1 101//1 102//1
f 61//1 237//1 60//1
f 237//1 241//1 60//1
f 60//1 241//1 117//1
f 61//1 62//1 237//1
f 62//1 63//1 237//1
f 237//1 63//1 64//1
f 64//1 65//1 237//1
f 65//1 66//1 237//1
f 237//1 66//1 67//1
f 104//1 105//1 241//1
f 105//1 106//1 241//1
f 241//1 106//1 107//1
f 107//1 108//1 241//1
f 108//1 109//1 241//1
f 241//1 109//1 110//1
f 241//1 113//1 114//1
f 67//1 68//1 237//1
f 68//1 69//1 237//1
f 237//1 69//1 70//1
f 110//1 111//1 241//1
f 111//1 112//1 241//1
f 241//1 112//1 113//1
f 114//1 115//1 241//1
f 115//1 116//1 241//1
f 241//1 116//1 117//1
f 242//117 243//117 238//117
f 243//117 239//117 238//117
f 240//118 244//118 235//118
f 244//118 236//118 235//118
f 186//60 187//60 239//60
f 187//60 188//60 239//60
f 239//60 188//60 189//60
f 210//60 241//60 209//60
f 241//60 208//60 209//60
f 239//60 179//60 180//60
f 210//60 211//60 241//60
f 211//60 212//60 241//60
f 241//60 212//60 213//60
f 216//60 217//60 241//60
f 217//60 218//60 241//60
f 227//60 228//60 243//60
f 228//60 229//60 243//60
f 243//60 229//60 230//60
f 230//60 231//60 243//60
f 231//60 232//60 243//60
f 243//60 232//60 233//60
f 233//60 234//60 243//60
f 234//60 177//60 243//60
f 243//60 177//60 239//60
f 177//60 178//60 239//60
f 239//60 178//60 179//60
f 213//60 214//60 241//60
f 214//60 215//60 241//60
f 241//60 215//60 216//60
f 221//60 243//60 220//60
f 243//60 241//60 220//60
f 220//60 241//60 219//60
f 241//60 218//60 219//60
f 221//60 222//60 243//60
f 222//60 223//60 243//60
f 243//60 223//60 224//60
f 224//60 225//60 243//60
f 225//60 226//60 243//60
f 243//60 226//60 227//60
f 183//60 184//60 239//60
f 184//60 185//60 239//60
f 239//60 185//60 186//60
f 192//60 237//60 191//60
f 237//60 239//60 191//60
f 191//60 239//60 190//60
f 239//60 189//60 190//60
f 192//60 193//60 237//60
f 193//60 194//60 237//60
f 237//60 194//60 195//60
f 180//60 181//60 239//60
f 181//60 182//60 239//60
f 239//60 182//60 183//60
f 195//60 196//60 237//60
f 196//60 197//60 237//60
f 237//60 197//60 198//60
f 198//60 199//60 237//60
f 199//60 200//60 237//60
f 237//60 200//60 201//60
f 201//60 202//60 237//60
f 202//60 203//60 237//60
f 237//60 203//60 204//60
f 204//60 205//60 237//60
f 205//60 206//60 237//60
f 237//60 206//60 241//60
f 206//60 207//60 241//60
f 241//60 207//60 208//60
f 244//45 240//45 242//45
f 240//45 241//45 242//45
f 242//45 241//45 243//45
f 244//119 242//119 236//119
f 242//119 238//119 236//119
usemtl Metalic
f 1//1 2//1 3//1
f 4//1 5//1 3//1
f 5//1 6//1 3//1
f 3//1 6//1 1//1
f 7//1 8//1 3//1
f 8//1 9//1 3//1
f 3//1 9//1 4//1
f 10//1 11//1 3//1
f 11//1 12//1 3//1
f 3//1 12//1 7//1
f 13//1 14//1 3//1
f 14//1 15//1 3//1
f 3//1 15//1 10//1
f 16//1 17//1 3//1
f 17//1 18//1 3//1
f 3//1 18//1 13//1
f 19//1 20//1 3//1
f 20//1 21//1 3//1
f 3//1 21//1 16//1
f 22//1 23//1 3//1
f 23//1 24//1 3//1
f 3//1 24//1 19//1
f 25//1 26//1 3//1
f 26//1 27//1 3//1
f 3//1 27//1 22//1
f 28//1 29//1 3//1
f 29//1 30//1 3//1
f 3//1 30//1 25//1
f 31//1 32//1 3//1
f 32//1 33//1 3//1
f 3//1 33//1 28//1
f 34//1 35//1 3//1
f 35//1 36//1 3//1
f 3//1 36//1 31//1
f 37//1 38//1 3//1
f 38//1 39//1 3//1
f 3//1 39//1 34//1
f 40//1 41//1 3//1
f 41//1 42//1 3//1
f 3//1 42//1 37//1
f 43//1 44//1 3//1
f 44//1 45//1 3//1
f 3//1 45//1 40//1
f 46//1 47//1 3//1
f 47//1 48//1 3//1
f 3//1 48//1 43//1
f 49//1 50//1 3//1
f 50//1 51//1 3//1
f 3//1 51//1 46//1
f 52//1 53//1 3//1
f 53//1 54//1 3//1
f 3//1 54//1 49//1
f 55//1 56//1 3//1
f 56//1 57//1 3//1
f 3//1 57//1 52//1
f 2//1 58//1 3//1
f 58//1 59//1 3//1
f 3//1 59//1 55//1
f 60//2 31//2 61//2
f 31//3 36//3 61//3
f 61//3 36//3 62//3
f 36//4 35//4 62//4
f 62//4 35//4 63//4
f 35//5 34//5 63//5
f 63//5 34//5 64//5
f 34//6 39//6 64//6
f 64//6 39//6 65//6
f 39//7 38//7 65//7
f 65//7 38//7 66//7
f 38//8 37//8 66//8
f 66//8 37//8 67//8
f 37//9 42//9 67//9
f 67//9 42//9 68//9
f 42//10 41//10 68//10
f 68//10 41//10 69//10
f 41//11 40//11 69//11
f 69//11 40//11 70//11
f 40//12 45//12 70//12
f 70//12 45//12 71//12
f 45//13 44//13 71//13
f 71//13 44//13 72//13
f 44//14 43//14 72//14
f 72//14 43//14 73//14
f 43//15 48//15 73//15
f 73//15 48//15 74//15
f 48//16 47//16 74//16
f 74//16 47//16 75//16
f 47//17 46//17 75//17
f 75//17 46//17 76//17
f 46//18 51//18 76//18
f 76//18 51//18 77//18
f 51//19 50//19 77//19
f 77//19 50//19 78//19
f 50//20 49//20 78//20
f 78//20 49//20 79//20
f 49//21 54//21 79//21
f 79//21 54//21 80//21
f 54//22 53//22 80//22
f 80//22 53//22 81//22
f 53//23 52//23 81//23
f 81//23 52//23 82//23
f 52//24 57//24 82//24
f 82//24 57//24 83//24
f 57//25 56//25 83//25
f 83//25 56//25 84//25
f 56//26 55//26 84//26
f 84//26 55//26 85//26
f 55//27 59//27 85//27
f 85//27 59//27 86//27
f 59//28 58//28 86//28
f 86//28 58//28 87//28
f 58//29 2//29 87//29
f 87//29 2//29 88//29
f 2//30 1//30 88//30
f 88//30 1//30 89//30
f 1//31 6//31 89//31
f 89//31 6//31 90//31
f 6//32 5//32 90//32
f 90//32 5//32 91//32
f 5//33 4//33 91//33
f 91//33 4//33 92//33
f 4//34 9//34 92//34
f 92//34 9//34 93//34
f 9//35 8//35 93//35
f 93//35 8//35 94//35
f 8//36 7//36 94//36
f 94//36 7//36 95//36
f 7//37 12//37 95//37
f 95//37 12//37 96//37
f 12//38 11//38 96//38
f 96//38 11//38 97//38
f 11//39 10//39 97//39
f 97//39 10//39 98//39
f 10//40 15//40 98//40
f 98//40 15//40 99//40
f 15//41 14//41 99//41
f 99//41 14//41 100//41
f 14//42 13//42 100//42
f 100//42 13//42 101//42
f 13//43 18//43 101//43
f 101//43 18//43 102//43
f 18//44 17//44 102//44
f 102//44 17//44 103//44
f 17//45 16//45 103//45
f 103//45 16//45 104//45
f 16//46 21//46 104//46
f 104//46 21//46 105//46
f 21//47 20//47 105//47
f 105//47 20//47 106//47
f 20//48 19//48 106//48
f 106//48 19//48 107//48
f 19//49 24//49 107//49
f 107//49 24//49 108//49
f 24//50 23//50 108//50
f 108//50 23//50 109//50
f 23//51 22//51 109//51
f 109//51 22//51 110//51
f 22//52 27//52 110//52
f 110//52 27//52 111//52
f 27//53 26//53 111//53
f 111//53 26//53 112//53
f 26//54 25//54 112//54
f 112//54 25//54 113//54
f 25//55 30//55 113//55
f 113//55 30//55 114//55
f 30//56 29//56 114//56
f 114//56 29//56 115//56
f 29//57 28//57 115//57
f 115//57 28//57 116//57
f 28//58 33//58 116//58
f 116//58 33//58 117//58
f 33//59 32//59 117//59
f 117//59 32//59 60//59
f 32//2 31//2 60//2
f 118//60 119//60 120//60
f 121//60 122//60 120//60
f 122//60 123//60 120//60
f 120//60 123//60 118//60
f 124//60 125//60 120//60
f 125//60 126//60 120//60
f 120//60 126//60 121//60
f 127//60 128//60 120//60
f 128//60 129//60 120//60
f 120//60 129//60 124//60
f 130//60 131//60 120//60
f 131//60 132//60 120//60
f 120//60 132//60 127//60
f 133//60 134//60 120//60
f 134//60 135//60 120//60
f 120//60 135//60 130//60
f 136//60 137//60 120//60
f 137//60 138//60 120//60
f 120//60 138//60 133//60
f 139//60 140//60 120//60
f 140//60 141//60 120//60
f 120//60 141//60 136//60
f 142//60 143//60 120//60
f 143//60 144//60 120//60
f 120//60 144//60 139//60
f 145//60 146//60 120//60
f 146//60 147//60 120//60
f 120//60 147//60 142//60
f 148//60 149//60 120//60
f 149//60 150//60 120//60
f 120//60 150//60 145//60
f 151//60 152//60 120//60
f 152//60 153//60 120//60
f 120//60 153//60 148//60
f 154//60 155//60 120//60
f 155//60 156//60 120//60
f 120//60 156//60 151//60
f 157//60 158//60 120//60
f 158//60 159//60 120//60
f 120//60 159//60 154//60
f 160//60 161//60 120//60
f 161//60 162//60 120//60
f 120//60 162//60 157//60
f 163//60 164//60 120//60
f 164//60 165//60 120//60
f 120//60 165//60 160//60
f 166//60 167//60 120//60
f 167//60 168//60 120//60
f 120//60 168//60 163//60
f 169//60 170//60 120//60
f 170//60 171//60 120//60
f 120//60 171//60 166//60
f 172//60 173//60 120//60
f 173//60 174//60 120//60
f 120//60 174//60 169//60
f 119//60 175//60 120//60
f 175//60 176//60 120//60
f 120//60 176//60 172//60
f 177//61 148//61 178//61
f 148//62 153//62 178//62
f 178//62 153//62 179//62
f 153//63 152//63 179//63
f 179//63 152//63 180//63
f 152//64 151//64 180//64
f 180//64 151//64 181//64
f 151//65 156//65 181//65
f 181//65 156//65 182//65
f 156//66 155//66 182//66
f 182//66 155//66 183//66
f 155//67 154//67 183//67
f 183//67 154//67 184//67
f 154//68 159//68 184//68
f 184//68 159//68 185//68
f 159//69 158//69 185//69
f 185//69 158//69 186//69
f 158//70 157//70 186//70
f 186//70 157//70 187//70
f 157//71 162//71 187//71
f 187//71 162//71 188//71
f 162//72 161//72 188//72
f 188//72 161//72 189//72
f 161//73 160//73 189//73
f 189//73 160//73 190//73
f 160//74 165//74 190//74
f 190//74 165//74 191//74
f 165//16 164//16 191//16
f 191//16 164//16 192//16
f 164//75 163//75 192//75
f 192//75 163//75 193//75
f 163//76 168//76 193//76
f 193//76 168//76 194//76
f 168//77 167//77 194//77
f 194//77 167//77 195//77
f 167//78 166//78 195//78
f 195//78 166//78 196//78
f 166//79 171//79 196//79
f 196//79 171//79 197//79
f 171//80 170//80 197//80
f 197//80 170//80 198//80
f 170//81 169//81 198//81
f 198//81 169//81 199//81
f 169//82 174//82 199//82
f 199//82 174//82 200//82
f 174//83 173//83 200//83
f 200//83 173//83 201//83
f 173//84 172//84 201//84
f 201//84 172//84 202//84
f 172//85 176//85 202//85
f 202//85 176//85 203//85
f 176//86 175//86 203//86
f 203//86 175//86 204//86
f 175//87 119//87 204//87
f 204//87 119//87 205//87
f 119//88 118//88 205//88
f 205//88 118//88 206//88
f 118//89 123//89 206//89
f 206//89 123//89 207//89
f 123//90 122//90 207//90
f 207//90 122//90 208//90
f 122//91 121//91 208//91
f 208//91 121//91 209//91
f 121//92 126//92 209//92
f 209//92 126//92 210//92
f 126//93 125//93 210//93
f 210//93 125//93 211//93
f 125//94 124//94 211//94
f 211//94 124//94 212//94
f 124//95 129//95 212//95
f 212//95 129//95 213//95
f 129//96 128//96 213//96
f 213//96 128//96 214//96
f 128//97 127//97 214//97
f 214//97 127//97 215//97
f 127//98 132//98 215//98
f 215//98 132//98 216//98
f 132//99 131//99 216//99
f 216//99 131//99 217//99
f 131//100 130//100 217//100
f 217//100 130//100 218//100
f 130//101 135//101 218//101
f 218//101 135//101 219//101
f 135//102 134//102 219//102
f 219//102 134//102 220//102
f 134//45 133//45 220//45
f 220//45 133//45 221//45
f 133//103 138//103 221//103
f 221//103 138//103 222//103
f 138//104 137//104 222//104
f 222//104 137//104 223//104
f 137//105 136//105 223//105
f 223//105 136//105 224//105
f 136//106 141//106 224//106
f 224//106 141//106 225//106
f 141//107 140//107 225//107
f 225//107 140//107 226//107
f 140//108 139//108 226//108
f 226//108 139//108 227//108
f 139//109 144//109 227//109
f 227//109 144//109 228//109
f 144//110 143//110 228//110
f 228//110 143//110 229//110
f 143//111 142//111 229//111
f 229//111 142//111 230//111
f 142//112 147//112 230//112
f 230//112 147//112 231//112
f 147//113 146//113 231//113
f 231//113 146//113 232//113
f 146//114 145//114 232//114
f 232//114 145//114 233//114
f 145//115 150//115 233//115
f 233//115 150//115 234//115
f 150//116 149//116 234//116
f 234//116 149//116 177//116
f 149//61 148//61 177//61
